<svg width="120" height="120" viewBox="0 0 120 120" fill="none" xmlns="http://www.w3.org/2000/svg">
<rect width="120" height="120" fill="#8BE39F"/>
<rect x="61.002" y="13" width="18.7273" height="26.3636" fill="#8BE39F" stroke="black" stroke-width="2"/>
<rect x="39.1826" y="98.0908" width="46" height="8.90909" rx="2" fill="#8BE39F" stroke="black" stroke-width="2"/>
<path d="M35.4015 33.5514L85.4015 31.7332C87.6662 31.6508 89.5469 33.4644 89.5469 35.7305V97.5454C89.5469 99.7546 87.756 101.545 85.5469 101.545H35.5469C33.3377 101.545 31.5469 99.7546 31.5469 97.5454V37.5487C31.5469 35.3961 33.2504 33.6296 35.4015 33.5514Z" fill="#8BE39F" stroke="black" stroke-width="2"/>
<rect x="58.8193" y="13" width="23.0909" height="2.36364" rx="1.18182" fill="#C4C4C4" stroke="black" stroke-width="2"/>
<path d="M31.6377 45.2726L89.4559 43.0908" stroke="black" stroke-width="2"/>
<path d="M66.0874 64.3635H88.3653L88.9108 43.0908L57.2744 44.7272L61.2367 60.5762C61.7931 62.8021 63.793 64.3635 66.0874 64.3635Z" fill="#FFA96A" stroke="black" stroke-width="2"/>
<path d="M47.0019 89.4546C47.0019 92.6958 44.8445 95.0001 42.5473 95.0001C40.2501 95.0001 38.0928 92.6958 38.0928 89.4546C38.0928 86.2135 40.2501 83.9092 42.5473 83.9092C44.8445 83.9092 47.0019 86.2135 47.0019 89.4546Z" fill="#FFA96A" stroke="black" stroke-width="2"/>
<rect x="39.3652" y="40.4546" width="7.45455" height="36.9091" rx="3" fill="#FFA96A" stroke="black" stroke-width="2"/>
<path d="M66.5474 56.1816L74.7292 66.5453L82.3656 63.818C81.2746 62.1817 76.483 54.6627 73.6383 51.818C70.3656 48.5452 64.911 53.9998 66.5474 56.1816Z" fill="#8BE39F" stroke="black" stroke-width="2"/>
<path d="M81.5981 61.9536C83.0252 64.8637 82.1027 67.8825 80.0401 68.8939C77.9776 69.9053 75.026 68.7862 73.599 65.8761C72.172 62.966 73.0945 59.9472 75.157 58.9358C77.2196 57.9244 80.1711 59.0435 81.5981 61.9536Z" fill="#8BE39F" stroke="black" stroke-width="2"/>
</svg>
