<svg width="120" height="120" viewBox="0 0 120 120" fill="none" xmlns="http://www.w3.org/2000/svg">
<rect width="120" height="120" fill="#FFA96A"/>
<rect x="36.7002" y="22.5078" width="7.03516" height="12.5566" fill="#FFA96A" stroke="black" stroke-width="2"/>
<path d="M47.2726 22.5682C47.2726 23.542 46.6806 24.5459 45.4713 25.3521C44.2689 26.1536 42.5504 26.6819 40.6021 26.6819C38.6539 26.6819 36.9353 26.1536 35.733 25.3521C34.5237 24.5459 33.9316 23.542 33.9316 22.5682C33.9316 21.5945 34.5237 20.5906 35.733 19.7844C36.9353 18.9829 38.6539 18.4546 40.6021 18.4546C42.5504 18.4546 44.2689 18.9829 45.4713 19.7844C46.6806 20.5906 47.2726 21.5945 47.2726 22.5682Z" fill="#FFA96A" stroke="black" stroke-width="2"/>
<rect x="36.5776" y="94.7617" width="1.75684" height="7.78028" rx="0.878418" fill="#FFA96A" stroke="black" stroke-width="1.75684"/>
<rect x="94.8013" y="94.7617" width="1.75684" height="7.78028" rx="0.878418" fill="#FFA96A" stroke="black" stroke-width="1.75684"/>
<rect x="34.1885" y="92.875" width="63.7559" height="7.53711" rx="1.45399" fill="#FFA96A" stroke="black" stroke-width="2"/>
<path d="M36.405 65.2378L35.0123 40.6343H45.9467L44.554 65.2378H36.405Z" fill="#FFA96A" stroke="black" stroke-width="2"/>
<path d="M26.7725 33.7954H72.8408V40.1602C72.8408 42.3185 71.0911 44.0682 68.9328 44.0682H30.6804C28.5221 44.0682 26.7725 42.3185 26.7725 40.1602V33.7954Z" fill="#FFA96A" stroke="black" stroke-width="2"/>
<rect x="20.6357" y="62.2183" width="44.6817" height="12.0547" fill="#FFA96A" stroke="black" stroke-width="2"/>
<path d="M53.5806 54.689H96.5462C98.7045 54.689 100.454 56.4386 100.454 58.5969V91.949C100.454 94.1073 98.7045 95.857 96.5462 95.857H34.1899C31.1762 95.857 29.2967 92.59 30.8114 89.9847L50.2021 56.6327C50.9017 55.4294 52.1886 54.689 53.5806 54.689Z" fill="#75CDFE" stroke="black" stroke-width="2"/>
<path d="M61.2236 90.2749H82.5566M94.3526 77.9771V85.3669C94.3526 88.0775 92.1552 90.2749 89.4446 90.2749H87.8272" stroke="black" stroke-width="2" stroke-linecap="round"/>
<circle cx="58.7881" cy="66.2944" r="5.02344" fill="white" stroke="black" stroke-width="2"/>
<rect x="20.6357" y="57.7012" width="10.0469" height="21.0899" rx="1.45399" fill="#FFA96A" stroke="black" stroke-width="2"/>
<path d="M21.6807 62.2227H25.3475" stroke="black" stroke-width="2" stroke-linecap="round"/>
<path d="M25.1729 67.9951H28.8397" stroke="black" stroke-width="2" stroke-linecap="round"/>
<path d="M21.6807 74.0186H25.3475" stroke="black" stroke-width="2" stroke-linecap="round"/>
<path d="M78.208 61.043H93.0156" stroke="black" stroke-width="2" stroke-linecap="round"/>
</svg>
