<svg width="120" height="120" viewBox="0 0 120 120" fill="none" xmlns="http://www.w3.org/2000/svg">
<rect width="120" height="120" fill="#DAFE75"/>
<mask id="path-2-inside-1_333:570" fill="white">
<rect x="32.4639" y="75.3481" width="11.7367" height="10.8339" rx="1.65517"/>
</mask>
<rect x="32.4639" y="75.3481" width="11.7367" height="10.8339" rx="1.65517" fill="#DAFE75" stroke="black" stroke-width="4" mask="url(#path-2-inside-1_333:570)"/>
<mask id="path-3-inside-2_333:570" fill="white">
<rect x="75.7988" y="75.3481" width="11.7367" height="10.8339" rx="1.65517"/>
</mask>
<rect x="75.7988" y="75.3481" width="11.7367" height="10.8339" rx="1.65517" fill="#DAFE75" stroke="black" stroke-width="4" mask="url(#path-3-inside-2_333:570)"/>
<mask id="path-4-inside-3_333:570" fill="white">
<rect x="20.7275" y="33.8184" width="77.6426" height="49.6552" rx="1.65517"/>
</mask>
<rect x="20.7275" y="33.8184" width="77.6426" height="49.6552" rx="1.65517" fill="#DAFE75" stroke="black" stroke-width="4" mask="url(#path-4-inside-3_333:570)"/>
<mask id="path-5-inside-4_333:570" fill="white">
<rect x="20.7275" y="33.8184" width="77.6426" height="10.8339" rx="1.65517"/>
</mask>
<rect x="20.7275" y="33.8184" width="77.6426" height="10.8339" rx="1.65517" fill="#FFA96A" stroke="black" stroke-width="4" mask="url(#path-5-inside-4_333:570)"/>
<mask id="path-6-inside-5_333:570" fill="white">
<rect x="20.7275" y="33.8184" width="58.6834" height="10.8339" rx="1.65517"/>
</mask>
<rect x="20.7275" y="33.8184" width="58.6834" height="10.8339" rx="1.65517" fill="#DAFE75" stroke="black" stroke-width="4" mask="url(#path-6-inside-5_333:570)"/>
<mask id="path-7-inside-6_333:570" fill="white">
<rect x="34.9092" y="42.5454" width="50.1818" height="28.3636" rx="1.65517"/>
</mask>
<rect x="34.9092" y="42.5454" width="50.1818" height="28.3636" rx="1.65517" fill="#DAFE75" stroke="black" stroke-width="4" mask="url(#path-7-inside-6_333:570)"/>
<path d="M44.1992 51.2326C45.7039 49.6813 47.2086 49.6813 48.7133 51.2326C50.218 52.7838 51.7227 52.7838 53.2274 51.2326C54.7321 49.6813 56.2368 49.6813 57.7415 51.2326C59.2462 52.7838 60.7509 52.7838 62.2556 51.2326C63.7603 49.6813 65.265 49.6813 66.7698 51.2326C68.2745 52.7838 69.7792 52.7838 71.2839 51.2326C72.7886 49.6813 74.2933 49.6813 75.798 51.2326" stroke="black" stroke-width="2"/>
<path d="M44.1992 57.1706C45.7039 55.6193 47.2086 55.6193 48.7133 57.1706C50.218 58.7218 51.7227 58.7218 53.2274 57.1706C54.7321 55.6193 56.2368 55.6193 57.7415 57.1706C59.2462 58.7218 60.7509 58.7218 62.2556 57.1706C63.7603 55.6193 65.265 55.6193 66.7698 57.1706C68.2745 58.7218 69.7792 58.7218 71.2839 57.1706C72.7886 55.6193 74.2933 55.6193 75.798 57.1706" stroke="black" stroke-width="2"/>
<path d="M44.1992 63.109C45.7039 61.5578 47.2086 61.5578 48.7133 63.109C50.218 64.6603 51.7227 64.6603 53.2274 63.109C54.7321 61.5578 56.2368 61.5578 57.7415 63.109C59.2462 64.6603 60.7509 64.6603 62.2556 63.109C63.7603 61.5578 65.265 61.5578 66.7698 63.109C68.2745 64.6603 69.7792 64.6603 71.2839 63.109C72.7886 61.5578 74.2933 61.5578 75.798 63.109" stroke="black" stroke-width="2"/>
</svg>
