<svg width="121" height="120" viewBox="0 0 121 120" fill="none" xmlns="http://www.w3.org/2000/svg">
<rect x="0.458984" width="120" height="120" fill="white"/>
<rect x="35.459" y="44" width="56.9091" height="56.9091" rx="6" fill="white" stroke="black" stroke-width="2"/>
<circle cx="63.459" cy="72" r="22" fill="white" stroke="black" stroke-width="2"/>
<circle cx="54.459" cy="72" r="6" fill="white" stroke="black" stroke-width="2"/>
<circle cx="72.459" cy="72" r="6" fill="white" stroke="black" stroke-width="2"/>
<path d="M65.3939 50.0052L63.661 43.0105H80.0247L77.5222 54.3367L73.1906 56.9356L65.3939 69.9303L62.7949 62.1335L65.3939 50.0052Z" fill="white"/>
<path d="M59.959 44H66.959L62.3281 56.8668L64.0282 64.8287L70.8285 56.143L77.6288 53.9715L78.459 44H84.459" stroke="black" stroke-width="2" stroke-linejoin="round"/>
<path d="M58.4619 34.4115L68.8576 35.2778L72.3229 47.4061L74.0555 37.0104L80.986 34.4115L74.0555 32.6788L69.7239 18.8179V30.9462L58.4619 34.4115Z" fill="#FFA96A"/>
<path d="M42.4762 13.9386L41.8435 25.0051L32.0264 32.096L44.5708 29.9142L51.1164 36.4595L49.48 25.5504L56.5714 22.2778L48.3889 22.2778L42.4762 13.9386Z" fill="#FFA96A"/>
<path d="M75.8272 29.2136L81.0197 30.1113L82.7208 35.3196L83.6186 30.1271L87.9553 29.287L83.6291 28.3945L81.9332 22.3199L81.0354 27.5124L75.8272 29.2136Z" fill="#FFA96A"/>
</svg>
