<svg width="120" height="120" viewBox="0 0 120 120" fill="none" xmlns="http://www.w3.org/2000/svg">
<rect width="120" height="120" fill="#FFE86C"/>
<rect x="34.3408" y="78.7271" width="9.52273" height="8.63636" rx="1" fill="#FFE76C" stroke="black" stroke-width="2"/>
<rect x="76.8867" y="78.7271" width="9.52273" height="8.63636" rx="1" fill="#FFE76C" stroke="black" stroke-width="2"/>
<path d="M28.1317 33.5225H91.733C94.071 33.5225 95.9106 35.519 95.7197 37.8492L92.1075 81.9174C91.9374 83.9929 90.2033 85.5906 88.1209 85.5906H31.7438C29.6614 85.5906 27.9273 83.9929 27.7572 81.9174L24.1451 37.8492C23.9541 35.519 25.7937 33.5225 28.1317 33.5225Z" fill="#FFE76C" stroke="black" stroke-width="2"/>
<rect x="22.8174" y="32.6362" width="74.2273" height="8.63636" rx="1" fill="#FFA96A" stroke="black" stroke-width="2"/>
<rect x="22.8174" y="32.6362" width="55.6136" height="8.63636" rx="1" fill="#FFE76C" stroke="black" stroke-width="2"/>
<rect x="47.6357" y="38.8408" width="5.97727" height="3.31818" rx="1" fill="#FFE76C" stroke="black" stroke-width="2"/>
</svg>
