<svg width="209" height="30" viewBox="0 0 209 30" fill="none" xmlns="http://www.w3.org/2000/svg">
<g clip-path="url(#clip0_253:2432)">
<path d="M205.951 26.582C204.274 28.2439 202.373 29.2349 199.988 29.6874C198.378 29.9942 196.968 30.0587 195.332 29.8987C193.164 29.6886 191.374 29.0319 189.629 27.801C188.201 26.7981 187.179 25.7129 186.287 24.2587C185.598 23.1328 185.196 22.0798 184.973 20.7975C184.66 19.0186 184.743 17.4534 185.239 15.7139C186.374 11.7573 189.531 8.95279 193.787 8.11824C196.217 7.64188 198.378 7.69083 200.781 8.27584C202.492 8.69251 203.851 9.39453 205.145 10.5299C205.962 11.2439 206.542 11.9614 207.056 12.8903C207.665 13.9887 207.911 15.056 207.841 16.2929H200.251C200.087 15.3342 199.599 14.5701 198.779 13.9827C197.718 13.2198 196.349 13.1589 195.214 13.8203C194.439 14.2752 193.93 14.8937 193.655 15.7139C193.002 17.6683 192.972 19.4866 193.555 21.4602C193.803 22.2899 194.22 22.9406 194.886 23.5328C195.645 24.2157 196.591 24.4963 197.629 24.3518C198.273 24.2635 198.796 23.9984 199.229 23.5388C199.684 23.0648 199.943 22.5562 200.062 21.927C200.146 21.484 200.193 21.1092 200.218 20.6602H208.22C208.38 22.9346 207.615 24.932 205.951 26.582Z" fill="#0056A8"/>
<path d="M205.951 26.582C204.274 28.2439 202.373 29.2349 199.988 29.6874C198.378 29.9942 196.968 30.0587 195.332 29.8987C193.164 29.6886 191.374 29.0319 189.629 27.801C188.201 26.7981 187.179 25.7129 186.287 24.2587C185.598 23.1328 185.196 22.0798 184.973 20.7975C184.66 19.0186 184.743 17.4534 185.239 15.7139C186.374 11.7573 189.531 8.95279 193.787 8.11824C196.217 7.64188 198.378 7.69083 200.781 8.27584C202.492 8.69251 203.851 9.39453 205.145 10.5299C205.962 11.2439 206.542 11.9614 207.056 12.8903C207.665 13.9887 207.911 15.056 207.841 16.2929H200.251C200.087 15.3342 199.599 14.5701 198.779 13.9827C197.718 13.2198 196.349 13.1589 195.214 13.8203C194.439 14.2752 193.93 14.8937 193.655 15.7139C193.002 17.6683 192.972 19.4866 193.555 21.4602C193.803 22.2899 194.22 22.9406 194.886 23.5328C195.645 24.2157 196.591 24.4963 197.629 24.3518C198.273 24.2635 198.796 23.9984 199.229 23.5388C199.684 23.0648 199.943 22.5562 200.062 21.927C200.146 21.484 200.193 21.1092 200.218 20.6602H208.22C208.38 22.9346 207.615 24.932 205.951 26.582Z" fill="#0C0C15"/>
<path d="M175.358 5.53024H183.659V0.0023967H175.358V5.53024Z" fill="#0056A8"/>
<path d="M175.358 5.53024H183.659V0.0023967H175.358V5.53024Z" fill="#0C0C15"/>
<path d="M175.358 29.2976H183.659V8.3718H175.358V29.2976Z" fill="#0056A8"/>
<path d="M175.358 29.2976H183.659V8.3718H175.358V29.2976Z" fill="#0C0C15"/>
<path d="M158.162 10.5804C159.254 9.68017 160.295 9.04501 161.612 8.47074C163.756 7.5371 165.901 7.38548 168.169 8.00989C170.602 8.68206 172.355 10.295 173.122 12.5742C173.491 13.669 173.65 14.6408 173.65 15.7894V29.2949H164.834V17.1492C164.834 16.7433 164.782 16.3995 164.653 16.0103C164.428 15.313 163.939 14.7996 163.224 14.5155C161.662 13.8899 159.885 14.4439 159.027 15.824C158.669 16.3995 158.505 16.9666 158.505 17.6352V29.2949H149.967V8.36806H157.977L158.162 10.5804Z" fill="#0056A8"/>
<path d="M158.162 10.5804C159.254 9.68017 160.295 9.04501 161.612 8.47074C163.756 7.5371 165.901 7.38548 168.169 8.00989C170.602 8.68206 172.355 10.295 173.122 12.5742C173.491 13.669 173.65 14.6408 173.65 15.7894V29.2949H164.834V17.1492C164.834 16.7433 164.782 16.3995 164.653 16.0103C164.428 15.313 163.939 14.7996 163.224 14.5155C161.662 13.8899 159.885 14.4439 159.027 15.824C158.669 16.3995 158.505 16.9666 158.505 17.6352V29.2949H149.967V8.36806H157.977L158.162 10.5804Z" fill="#0C0C15"/>
<path d="M59.9823 10.5804C61.074 9.68017 62.1151 9.04501 63.4297 8.47074C65.5752 7.5371 67.7207 7.38548 69.9878 8.00989C72.422 8.68206 74.1749 10.295 74.9424 12.5742C75.311 13.669 75.4705 14.6408 75.4705 15.7894V29.2949H66.6543V17.1492C66.6543 16.7433 66.5998 16.3995 66.4744 16.0103C66.2465 15.313 65.7576 14.7996 65.042 14.5155C63.4804 13.8899 61.7035 14.4439 60.8473 15.824C60.4876 16.3995 60.3242 16.9666 60.3242 17.6352V29.2949H51.7866V8.36806H59.7961L59.9823 10.5804Z" fill="#0056A8"/>
<path d="M59.9823 10.5804C61.074 9.68017 62.1151 9.04501 63.4297 8.47074C65.5752 7.5371 67.7207 7.38548 69.9878 8.00989C72.422 8.68206 74.1749 10.295 74.9424 12.5742C75.311 13.669 75.4705 14.6408 75.4705 15.7894V29.2949H66.6543V17.1492C66.6543 16.7433 66.5998 16.3995 66.4744 16.0103C66.2465 15.313 65.7576 14.7996 65.042 14.5155C63.4804 13.8899 61.7035 14.4439 60.8473 15.824C60.4876 16.3995 60.3242 16.9666 60.3242 17.6352V29.2949H51.7866V8.36806H59.7961L59.9823 10.5804Z" fill="#0C0C15"/>
<path d="M112.304 21.6034C112.94 21.7049 113.472 21.8303 114.082 22.0225C114.593 22.1801 114.943 22.5526 115.055 23.0457C115.176 23.5841 115.016 24.0951 114.605 24.4831C114.189 24.8807 113.714 25.1099 113.129 25.1959C112.346 25.3141 111.652 25.2532 110.906 24.9977C110.545 24.8759 110.259 24.7219 109.962 24.4915C109.581 24.1882 109.335 23.8408 109.187 23.3919C109.063 23.0111 109.014 22.6744 109.021 22.2756H100.891V22.7221C100.891 23.4432 101.01 24.0545 101.279 24.7291C101.687 25.7439 102.245 26.5283 103.089 27.2685C104.189 28.2392 105.338 28.8445 106.786 29.2349C109.791 30.042 112.498 30.202 115.587 29.7554C117.036 29.5465 118.231 29.1788 119.535 28.5424C120.108 28.2619 120.568 27.9717 121.063 27.5801C123.259 25.8418 124.074 23.1889 123.196 20.6161C122.864 19.6466 122.34 18.8992 121.523 18.2306C120.403 17.3161 119.27 16.7335 117.846 16.3419C117.535 16.2571 117.269 16.1855 116.955 16.1043C115.213 15.6482 113.717 15.3474 111.929 15.0966C111.45 15.0298 111.048 14.957 110.575 14.8531C110.357 14.8041 110.176 14.7468 109.974 14.6597C109.473 14.4472 109.252 13.892 109.477 13.4216C109.49 13.3965 109.501 13.3738 109.515 13.35C109.784 12.8975 110.181 12.6026 110.706 12.4581C111.634 12.205 112.489 12.2265 113.4 12.519C114.273 12.7996 114.822 13.5553 114.784 14.4257H122.617C122.61 13.5183 122.463 12.7518 122.139 11.8994C121.807 11.035 121.303 10.3771 120.536 9.80763C119.87 9.30857 119.238 8.9695 118.444 8.67938C117.672 8.39643 116.99 8.21973 116.173 8.08482C114.232 7.76963 112.561 7.6777 110.595 7.78753C109.472 7.84842 108.525 7.97976 107.425 8.22212C105.946 8.55044 104.754 9.08889 103.559 9.97239C102.543 10.7234 101.878 11.6009 101.452 12.7494C101.259 13.27 101.166 13.732 101.141 14.28C101.097 15.1981 101.237 15.9801 101.598 16.8338C102.244 18.362 103.392 19.4448 105.015 20.0549C105.837 20.3642 106.558 20.5671 107.425 20.7343C109.135 21.0674 110.583 21.3264 112.304 21.6034Z" fill="#0056A8"/>
<path d="M112.304 21.6034C112.94 21.7049 113.472 21.8303 114.082 22.0225C114.593 22.1801 114.943 22.5526 115.055 23.0457C115.176 23.5841 115.016 24.0951 114.605 24.4831C114.189 24.8807 113.714 25.1099 113.129 25.1959C112.346 25.3141 111.652 25.2532 110.906 24.9977C110.545 24.8759 110.259 24.7219 109.962 24.4915C109.581 24.1882 109.335 23.8408 109.187 23.3919C109.063 23.0111 109.014 22.6744 109.021 22.2756H100.891V22.7221C100.891 23.4432 101.01 24.0545 101.279 24.7291C101.687 25.7439 102.245 26.5283 103.089 27.2685C104.189 28.2392 105.338 28.8445 106.786 29.2349C109.791 30.042 112.498 30.202 115.587 29.7554C117.036 29.5465 118.231 29.1788 119.535 28.5424C120.108 28.2619 120.568 27.9717 121.063 27.5801C123.259 25.8418 124.074 23.1889 123.196 20.6161C122.864 19.6466 122.34 18.8992 121.523 18.2306C120.403 17.3161 119.27 16.7335 117.846 16.3419C117.535 16.2571 117.269 16.1855 116.955 16.1043C115.213 15.6482 113.717 15.3474 111.929 15.0966C111.45 15.0298 111.048 14.957 110.575 14.8531C110.357 14.8041 110.176 14.7468 109.974 14.6597C109.473 14.4472 109.252 13.892 109.477 13.4216C109.49 13.3965 109.501 13.3738 109.515 13.35C109.784 12.8975 110.181 12.6026 110.706 12.4581C111.634 12.205 112.489 12.2265 113.4 12.519C114.273 12.7996 114.822 13.5553 114.784 14.4257H122.617C122.61 13.5183 122.463 12.7518 122.139 11.8994C121.807 11.035 121.303 10.3771 120.536 9.80763C119.87 9.30857 119.238 8.9695 118.444 8.67938C117.672 8.39643 116.99 8.21973 116.173 8.08482C114.232 7.76963 112.561 7.6777 110.595 7.78753C109.472 7.84842 108.525 7.97976 107.425 8.22212C105.946 8.55044 104.754 9.08889 103.559 9.97239C102.543 10.7234 101.878 11.6009 101.452 12.7494C101.259 13.27 101.166 13.732 101.141 14.28C101.097 15.1981 101.237 15.9801 101.598 16.8338C102.244 18.362 103.392 19.4448 105.015 20.0549C105.837 20.3642 106.558 20.5671 107.425 20.7343C109.135 21.0674 110.583 21.3264 112.304 21.6034Z" fill="#0C0C15"/>
<path d="M15.1273 20.2725H9.43052V13.4063H13.1326C13.8355 13.4063 14.4307 13.3908 15.1337 13.3538C16.1076 13.3036 16.9169 12.8929 17.497 12.1539C17.8048 11.7611 17.9783 11.3647 18.0517 10.88C18.1125 10.4717 18.1214 10.1231 18.0783 9.71475C17.92 8.18654 16.5775 7.04039 14.95 7.04039H9.43052V29.296H0V-7.51514e-05H15.4148C16.0278 -7.51514e-05 16.5458 0.0106698 17.1576 0.0429047C21.2472 0.249449 24.6161 2.39013 26.3487 5.88827C27.2505 7.70898 27.557 9.45925 27.3252 11.4579C26.8363 15.6652 23.7143 18.9377 19.3284 19.8439C17.8744 20.1447 16.6155 20.2725 15.1273 20.2725Z" fill="#0056A8"/>
<path d="M15.1273 20.2725H9.43052V13.4063H13.1326C13.8355 13.4063 14.4307 13.3908 15.1337 13.3538C16.1076 13.3036 16.9169 12.8929 17.497 12.1539C17.8048 11.7611 17.9783 11.3647 18.0517 10.88C18.1125 10.4717 18.1214 10.1231 18.0783 9.71475C17.92 8.18654 16.5775 7.04039 14.95 7.04039H9.43052V29.296H0V-7.51514e-05H15.4148C16.0278 -7.51514e-05 16.5458 0.0106698 17.1576 0.0429047C21.2472 0.249449 24.6161 2.39013 26.3487 5.88827C27.2505 7.70898 27.557 9.45925 27.3252 11.4579C26.8363 15.6652 23.7143 18.9377 19.3284 19.8439C17.8744 20.1447 16.6155 20.2725 15.1273 20.2725Z" fill="#0C0C15"/>
<path d="M138.931 7.96944C138.054 7.83811 137.304 7.78438 136.416 7.78438C135.527 7.78438 134.779 7.83811 133.9 7.96944C131.351 8.34552 129.287 9.31139 127.426 10.9948C125.435 12.7988 124.345 14.9335 124.095 17.5255C123.943 19.117 124.074 20.4888 124.529 22.0277C125.225 24.3892 126.534 26.2135 128.598 27.7035C129.957 28.6885 131.308 29.2783 132.983 29.6221C134.172 29.8681 135.199 29.9696 136.416 29.9696C137.632 29.9696 138.66 29.8681 139.851 29.6221C141.524 29.2783 142.875 28.6885 144.234 27.7035L139.465 22.8037C138.706 24.3916 136.73 25.0996 135.045 24.3845C134.268 24.055 133.717 23.5368 133.366 22.8037C133.043 22.1268 132.855 21.5203 132.738 20.7848C132.503 19.3151 132.529 18.0389 132.834 16.5787C132.99 15.8206 133.259 15.2021 133.707 14.5562C134.687 13.1462 136.694 12.7522 138.192 13.6751C138.583 13.9175 138.869 14.1873 139.124 14.5562C139.574 15.2021 139.842 15.8206 139.998 16.5787C140.299 18.0389 140.33 19.3151 140.094 20.7848C139.976 21.5203 139.788 22.1268 139.465 22.8037L144.234 27.7035C146.3 26.2135 147.608 24.3892 148.304 22.0277C148.758 20.4888 148.888 19.117 148.737 17.5255C148.487 14.9335 147.399 12.7988 145.407 10.9948C143.545 9.309 141.482 8.34552 138.931 7.96944Z" fill="#0056A8"/>
<path d="M138.931 7.96944C138.054 7.83811 137.304 7.78438 136.416 7.78438C135.527 7.78438 134.779 7.83811 133.9 7.96944C131.351 8.34552 129.287 9.31139 127.426 10.9948C125.435 12.7988 124.345 14.9335 124.095 17.5255C123.943 19.117 124.074 20.4888 124.529 22.0277C125.225 24.3892 126.534 26.2135 128.598 27.7035C129.957 28.6885 131.308 29.2783 132.983 29.6221C134.172 29.8681 135.199 29.9696 136.416 29.9696C137.632 29.9696 138.66 29.8681 139.851 29.6221C141.524 29.2783 142.875 28.6885 144.234 27.7035L139.465 22.8037C138.706 24.3916 136.73 25.0996 135.045 24.3845C134.268 24.055 133.717 23.5368 133.366 22.8037C133.043 22.1268 132.855 21.5203 132.738 20.7848C132.503 19.3151 132.529 18.0389 132.834 16.5787C132.99 15.8206 133.259 15.2021 133.707 14.5562C134.687 13.1462 136.694 12.7522 138.192 13.6751C138.583 13.9175 138.869 14.1873 139.124 14.5562C139.574 15.2021 139.842 15.8206 139.998 16.5787C140.299 18.0389 140.33 19.3151 140.094 20.7848C139.976 21.5203 139.788 22.1268 139.465 22.8037L144.234 27.7035C146.3 26.2135 147.608 24.3892 148.304 22.0277C148.758 20.4888 148.888 19.117 148.737 17.5255C148.487 14.9335 147.399 12.7988 145.407 10.9948C143.545 9.309 141.482 8.34552 138.931 7.96944Z" fill="#0C0C15"/>
<path d="M99.9813 27.6563C99.8572 25.9323 99.7875 24.4722 99.7508 22.7422C99.7027 20.469 99.6735 18.5516 99.6571 16.2796C99.6469 15.0534 99.5038 14.0183 99.1783 12.8316C98.7515 11.2759 97.7851 10.094 96.297 9.30837C95.3978 8.83438 94.5733 8.54307 93.5676 8.33772C90.3659 7.69181 87.5403 7.63809 84.3144 8.16579C83.4076 8.31384 82.6578 8.51919 81.8067 8.8511C79.8411 9.61758 78.4872 11.0145 77.8565 12.9283C77.6146 13.6602 77.55 14.324 77.6424 15.0869C77.6601 15.2266 77.6969 15.3448 77.764 15.4725L85.2339 15.6444C85.2149 15.1955 85.277 14.8159 85.4378 14.3944C85.6823 13.7521 86.1636 13.296 86.8449 13.062C87.8468 12.7146 88.8119 12.7014 89.8276 13.0143C90.4951 13.2208 90.9687 13.6745 91.1764 14.3061C91.3069 14.7012 91.2423 15.0905 90.989 15.4283C90.7686 15.7268 90.4963 15.9274 90.1354 16.0575C89.9125 16.1375 89.7225 16.196 89.4945 16.2533C88.456 16.5172 87.5694 16.6987 86.5093 16.8646C85.6696 16.9947 84.9629 17.1177 84.1308 17.2777C82.9998 17.489 82.055 17.723 80.9594 18.0573C79.9563 18.363 79.166 18.7975 78.3909 19.4697C77.3828 20.3389 76.8065 21.3692 76.614 22.6479C76.4873 23.5003 76.5165 24.243 76.7166 25.0823C77.2397 27.2647 78.8469 28.8789 81.1279 29.5045C83.6559 30.1958 86.028 30.0824 88.4686 29.1535C89.6566 28.7034 90.5609 28.079 91.3778 27.1501L90.8509 23.5529C90.4748 24.1021 90.0074 24.477 89.3755 24.7396C88.7827 24.9868 88.247 25.1169 87.6023 25.179C87.0653 25.2291 86.5992 25.1921 86.0787 25.0548C85.6557 24.945 85.3251 24.7587 85.025 24.4579C84.7717 24.2 84.6209 23.923 84.5437 23.5791C84.4259 23.0514 84.6095 22.544 85.0465 22.1942C85.3391 21.959 85.6253 21.8014 85.9837 21.6772C86.8513 21.3764 87.5922 21.1507 88.48 20.9131C89.554 20.6278 90.4431 20.3186 91.4563 19.8792C91.5564 20.6445 91.5513 21.3 91.4386 22.0617C91.3563 22.6204 91.1764 23.0801 90.8509 23.5529L91.3778 27.1501C91.5412 27.6611 91.6919 28.0885 91.8768 28.5888C91.982 28.8693 92.1187 29.0866 92.3264 29.3051H100.555C100.204 28.7858 100.026 28.2724 99.9813 27.6563Z" fill="#0056A8"/>
<path d="M99.9813 27.6563C99.8572 25.9323 99.7875 24.4722 99.7508 22.7422C99.7027 20.469 99.6735 18.5516 99.6571 16.2796C99.6469 15.0534 99.5038 14.0183 99.1783 12.8316C98.7515 11.2759 97.7851 10.094 96.297 9.30837C95.3978 8.83438 94.5733 8.54307 93.5676 8.33772C90.3659 7.69181 87.5403 7.63809 84.3144 8.16579C83.4076 8.31384 82.6578 8.51919 81.8067 8.8511C79.8411 9.61758 78.4872 11.0145 77.8565 12.9283C77.6146 13.6602 77.55 14.324 77.6424 15.0869C77.6601 15.2266 77.6969 15.3448 77.764 15.4725L85.2339 15.6444C85.2149 15.1955 85.277 14.8159 85.4378 14.3944C85.6823 13.7521 86.1636 13.296 86.8449 13.062C87.8468 12.7146 88.8119 12.7014 89.8276 13.0143C90.4951 13.2208 90.9687 13.6745 91.1764 14.3061C91.3069 14.7012 91.2423 15.0905 90.989 15.4283C90.7686 15.7268 90.4963 15.9274 90.1354 16.0575C89.9125 16.1375 89.7225 16.196 89.4945 16.2533C88.456 16.5172 87.5694 16.6987 86.5093 16.8646C85.6696 16.9947 84.9629 17.1177 84.1308 17.2777C82.9998 17.489 82.055 17.723 80.9594 18.0573C79.9563 18.363 79.166 18.7975 78.3909 19.4697C77.3828 20.3389 76.8065 21.3692 76.614 22.6479C76.4873 23.5003 76.5165 24.243 76.7166 25.0823C77.2397 27.2647 78.8469 28.8789 81.1279 29.5045C83.6559 30.1958 86.028 30.0824 88.4686 29.1535C89.6566 28.7034 90.5609 28.079 91.3778 27.1501L90.8509 23.5529C90.4748 24.1021 90.0074 24.477 89.3755 24.7396C88.7827 24.9868 88.247 25.1169 87.6023 25.179C87.0653 25.2291 86.5992 25.1921 86.0787 25.0548C85.6557 24.945 85.3251 24.7587 85.025 24.4579C84.7717 24.2 84.6209 23.923 84.5437 23.5791C84.4259 23.0514 84.6095 22.544 85.0465 22.1942C85.3391 21.959 85.6253 21.8014 85.9837 21.6772C86.8513 21.3764 87.5922 21.1507 88.48 20.9131C89.554 20.6278 90.4431 20.3186 91.4563 19.8792C91.5564 20.6445 91.5513 21.3 91.4386 22.0617C91.3563 22.6204 91.1764 23.0801 90.8509 23.5529L91.3778 27.1501C91.5412 27.6611 91.6919 28.0885 91.8768 28.5888C91.982 28.8693 92.1187 29.0866 92.3264 29.3051H100.555C100.204 28.7858 100.026 28.2724 99.9813 27.6563Z" fill="#0C0C15"/>
<path d="M50.1436 27.6564C50.0195 25.9324 49.9498 24.4723 49.9131 22.7423C49.8637 20.4691 49.8358 18.5517 49.8194 16.2797C49.8105 15.0535 49.6674 14.0184 49.3406 12.8317C48.9138 11.276 47.9487 10.0941 46.4593 9.30846C45.5601 8.83448 44.7356 8.54317 43.7299 8.33781C40.5282 7.69191 37.7026 7.63818 34.4755 8.16589C33.5712 8.31393 32.8189 8.51929 31.969 8.85119C30.0034 9.61768 28.6495 11.0146 28.0187 12.9284C27.7781 13.6603 27.7122 14.3241 27.806 15.087C27.8224 15.2267 27.8592 15.3449 27.9263 15.4726L35.3962 15.6445C35.3785 15.1956 35.4393 14.816 35.6001 14.3945C35.8446 13.7522 36.3259 13.2961 37.0072 13.0621C38.0103 12.7147 38.9742 12.7015 39.9886 13.0143C40.6574 13.2209 41.1323 13.6746 41.3413 14.3062C41.4692 14.7013 41.4046 15.0906 41.1513 15.4284C40.9297 15.7269 40.6574 15.9275 40.2977 16.0576C40.0748 16.1376 39.8848 16.1961 39.6555 16.2534C38.6183 16.5173 37.7304 16.6987 36.6716 16.8647C35.8332 16.9948 35.1252 17.1178 34.2918 17.2778C33.1621 17.4891 32.2185 17.7231 31.1205 18.0574C30.1199 18.3631 29.3296 18.7976 28.5532 19.4698C27.5451 20.339 26.9701 21.3693 26.7763 22.648C26.6484 23.5004 26.6788 24.243 26.8801 25.0824C27.4007 27.2648 29.0104 28.879 31.2889 29.5046C33.8194 30.1959 36.1891 30.0824 38.6309 29.1536C39.8177 28.7035 40.7245 28.0791 41.5414 27.1502L41.0145 23.553C40.6384 24.1022 40.1698 24.4771 39.5365 24.7397C38.945 24.9869 38.408 25.117 37.7659 25.1791C37.2264 25.2292 36.7628 25.1922 36.241 25.0549C35.818 24.9451 35.4874 24.7588 35.1885 24.458C34.934 24.2001 34.7832 23.9231 34.706 23.5792C34.5895 23.0515 34.7718 22.5441 35.2088 22.1943C35.5001 21.9591 35.7863 21.8015 36.146 21.6773C37.0136 21.3765 37.7558 21.1508 38.6436 20.9132C39.7176 20.6279 40.6054 20.3187 41.6199 19.8793C41.7187 20.6446 41.7136 21.3001 41.6009 22.0618C41.5186 22.6205 41.3375 23.0802 41.0145 23.553L41.5414 27.1502C41.7035 27.6612 41.8542 28.0886 42.0404 28.5889C42.1443 28.8694 42.281 29.0867 42.4888 29.3052H50.7173C50.3665 28.7859 50.1892 28.2725 50.1436 27.6564Z" fill="#0056A8"/>
<path d="M50.1436 27.6564C50.0195 25.9324 49.9498 24.4723 49.9131 22.7423C49.8637 20.4691 49.8358 18.5517 49.8194 16.2797C49.8105 15.0535 49.6674 14.0184 49.3406 12.8317C48.9138 11.276 47.9487 10.0941 46.4593 9.30846C45.5601 8.83448 44.7356 8.54317 43.7299 8.33781C40.5282 7.69191 37.7026 7.63818 34.4755 8.16589C33.5712 8.31393 32.8189 8.51929 31.969 8.85119C30.0034 9.61768 28.6495 11.0146 28.0187 12.9284C27.7781 13.6603 27.7122 14.3241 27.806 15.087C27.8224 15.2267 27.8592 15.3449 27.9263 15.4726L35.3962 15.6445C35.3785 15.1956 35.4393 14.816 35.6001 14.3945C35.8446 13.7522 36.3259 13.2961 37.0072 13.0621C38.0103 12.7147 38.9742 12.7015 39.9886 13.0143C40.6574 13.2209 41.1323 13.6746 41.3413 14.3062C41.4692 14.7013 41.4046 15.0906 41.1513 15.4284C40.9297 15.7269 40.6574 15.9275 40.2977 16.0576C40.0748 16.1376 39.8848 16.1961 39.6555 16.2534C38.6183 16.5173 37.7304 16.6987 36.6716 16.8647C35.8332 16.9948 35.1252 17.1178 34.2918 17.2778C33.1621 17.4891 32.2185 17.7231 31.1205 18.0574C30.1199 18.3631 29.3296 18.7976 28.5532 19.4698C27.5451 20.339 26.9701 21.3693 26.7763 22.648C26.6484 23.5004 26.6788 24.243 26.8801 25.0824C27.4007 27.2648 29.0104 28.879 31.2889 29.5046C33.8194 30.1959 36.1891 30.0824 38.6309 29.1536C39.8177 28.7035 40.7245 28.0791 41.5414 27.1502L41.0145 23.553C40.6384 24.1022 40.1698 24.4771 39.5365 24.7397C38.945 24.9869 38.408 25.117 37.7659 25.1791C37.2264 25.2292 36.7628 25.1922 36.241 25.0549C35.818 24.9451 35.4874 24.7588 35.1885 24.458C34.934 24.2001 34.7832 23.9231 34.706 23.5792C34.5895 23.0515 34.7718 22.5441 35.2088 22.1943C35.5001 21.9591 35.7863 21.8015 36.146 21.6773C37.0136 21.3765 37.7558 21.1508 38.6436 20.9132C39.7176 20.6279 40.6054 20.3187 41.6199 19.8793C41.7187 20.6446 41.7136 21.3001 41.6009 22.0618C41.5186 22.6205 41.3375 23.0802 41.0145 23.553L41.5414 27.1502C41.7035 27.6612 41.8542 28.0886 42.0404 28.5889C42.1443 28.8694 42.281 29.0867 42.4888 29.3052H50.7173C50.3665 28.7859 50.1892 28.2725 50.1436 27.6564Z" fill="#0C0C15"/>
</g>
<defs>
<clipPath id="clip0_253:2432">
<rect width="209" height="30" fill="white"/>
</clipPath>
</defs>
</svg>
