<svg width="90" height="110" viewBox="0 0 90 110" fill="none" xmlns="http://www.w3.org/2000/svg">
<g clip-path="url(#clip0_109:4705)">
<path d="M72.2062 32.6767L69.407 36.3306C68.5771 35.3555 67.6921 34.4276 66.7563 33.5512L69.1847 30.3926L72.2062 32.6767Z" fill="#75CDFE"/>
<path d="M84.9354 37.433L74.0492 29.2448L61.1569 19.5388C63.4201 17.7816 66.1345 16.6844 68.9943 16.3707C71.8542 16.057 74.7458 16.5392 77.3434 17.7632C79.2541 18.6665 80.9601 19.9432 82.3582 21.5164C84.2454 23.6649 85.4882 26.2921 85.9466 29.1017C86.405 31.9113 86.0607 34.7917 84.9526 37.4182L84.9354 37.433Z" fill="#75CDFE"/>
<path d="M30.1932 20.8419L30.6315 25.4082C31.8571 25.015 33.103 24.6869 34.3639 24.4252L33.9822 20.4793L30.1932 20.8419Z" fill="#75CDFE"/>
<path d="M16.8633 18.268L30.473 16.983L46.5971 15.4522C45.4262 12.2764 43.2225 9.57477 40.3315 7.77109C37.4405 5.96741 34.0258 5.16374 30.6231 5.48615C27.2204 5.80856 24.0222 7.23882 21.5301 9.55255C19.0381 11.8663 17.3932 14.9326 16.8535 18.2705L16.8633 18.268Z" fill="#75CDFE"/>
<path d="M54.5223 108.482C53.7962 108.665 53.0271 108.568 52.3699 108.213C51.7128 107.857 51.2164 107.268 50.9808 106.565L50.298 104.512L47.0233 94.7987C49.5891 94.356 52.1148 93.7102 54.576 92.8675L55.1066 95.8908L56.7328 105.113C56.8677 105.848 56.714 106.605 56.3032 107.231C55.8924 107.857 55.2554 108.305 54.5223 108.482Z" fill="#75CDFE"/>
<path d="M4.8658 94.5057C5.38573 95.0439 6.09297 95.3668 6.84447 95.4089C7.59596 95.4511 8.3356 95.2094 8.91374 94.7328L10.578 93.3457L18.5362 86.7943C16.5885 85.0836 14.7856 83.2182 13.1456 81.2167L11.0816 83.5123L4.77787 90.5161C4.28303 91.0704 4.01733 91.7886 4.03363 92.5279C4.04992 93.2671 4.34701 93.9732 4.8658 94.5057Z" fill="#75CDFE"/>
<g opacity="0.5">
<path opacity="0.5" d="M68.4155 19.7401C67.3928 19.9151 66.3895 20.1892 65.42 20.5584C65.3304 20.5855 65.2341 20.5804 65.1482 20.5439C65.0622 20.5074 64.9923 20.4419 64.9507 20.3591C64.9091 20.2762 64.8986 20.1813 64.921 20.0912C64.9433 20.001 64.9972 19.9215 65.0729 19.8667C69.1383 17.2575 74.4294 18.0091 77.8675 20.3941C77.9183 20.4539 77.949 20.5279 77.9554 20.6059C77.9618 20.684 77.9436 20.7622 77.9032 20.8297C77.8628 20.8973 77.8024 20.9508 77.7301 20.9831C77.6579 21.0153 77.5774 21.0245 77.4998 21.0095C76.7318 20.9105 73.1359 19.0973 68.4155 19.7401Z" fill="white"/>
<path opacity="0.5" d="M40.3315 11.8229C41.1068 12.5068 41.8151 13.2617 42.4469 14.0777C42.5048 14.1666 42.596 14.2288 42.7005 14.2508C42.805 14.2727 42.9142 14.2526 43.0041 14.1949C43.094 14.1371 43.1573 14.0465 43.1799 13.9429C43.2026 13.8393 43.1828 13.7311 43.125 13.6423C41.0967 9.29506 36.1597 7.21447 31.9556 7.46341C31.8603 7.46662 31.7696 7.50493 31.7011 7.57083C31.6326 7.63674 31.5913 7.72549 31.5853 7.81969C31.5793 7.9139 31.609 8.00677 31.6685 8.08011C31.7281 8.15346 31.8133 8.20199 31.9074 8.2162C32.6226 8.51683 36.6565 8.83317 40.3315 11.8229Z" fill="white"/>
</g>
<g opacity="0.5">
<path opacity="0.5" d="M84.9124 37.4283L74.0551 29.2614C77.8905 28.7838 81.5767 27.4774 84.8528 25.4347C85.6786 27.3228 86.1095 29.3586 86.1198 31.4197C86.13 33.4807 85.7194 35.5246 84.9124 37.4283Z" fill="#308DC0"/>
<path opacity="0.5" d="M16.8624 18.2866L30.4705 16.9628C27.4683 14.5712 25.0351 11.5547 23.3421 8.12563C21.6302 9.3048 20.1741 10.8123 19.0608 12.558C17.9476 14.3038 17.1998 16.2521 16.8624 18.2866Z" fill="#308DC0"/>
<path opacity="0.5" d="M55.0981 95.8912C52.7435 98.2949 51.0782 101.275 50.2747 104.524L47.0271 94.8178C49.5909 94.3691 52.1151 93.7174 54.5754 92.8688L55.0981 95.8912Z" fill="#308DC0"/>
<path opacity="0.5" d="M11.1029 83.5155C11.8154 86.7771 11.6315 90.1723 10.5701 93.3479L18.5413 86.7805C16.5999 85.0741 14.8035 83.2126 13.1701 81.2147L11.1029 83.5155Z" fill="#308DC0"/>
</g>
<path d="M82.987 20.9397C82.8036 21.1684 82.5859 21.3678 82.3413 21.5311C80.9432 19.958 79.2373 18.6813 77.3265 17.7779C77.4148 17.4988 77.5513 17.2369 77.7298 17.0038C78.0484 16.6044 78.4799 16.3076 78.9695 16.1512C79.459 15.9949 79.9845 15.986 80.4792 16.1258C80.7892 16.215 81.0801 16.3595 81.3376 16.5521L82.4947 17.4175C83.021 17.828 83.3663 18.424 83.458 19.0806C83.5498 19.7372 83.381 20.4035 82.987 20.9397Z" fill="#FFE76C"/>
<path d="M84.9382 37.4328C84.8143 37.7246 84.6843 38.0128 84.5319 38.2962C84.365 38.6177 84.1289 38.8991 83.8401 39.1207C83.5514 39.3422 83.2171 39.4984 82.8607 39.5784C82.5043 39.6584 82.1345 39.6601 81.7773 39.5835C81.4202 39.5069 81.0843 39.3538 80.7935 39.135L72.2115 32.6801L69.1864 30.4022L67.4526 29.1011L60.5858 23.9364C60.295 23.7159 60.057 23.4347 59.8886 23.1129C59.7202 22.791 59.6256 22.4365 59.6116 22.0744C59.5975 21.7123 59.6644 21.3515 59.8074 21.0179C59.9503 20.6843 60.1659 20.3859 60.4388 20.144C60.6696 19.9394 60.903 19.7446 61.1462 19.5473L74.0385 29.2533L84.9382 37.4328Z" fill="#FFE76C"/>
<path d="M27.3086 5.26463C27.3348 5.5546 27.4123 5.83779 27.5373 6.10135C29.561 5.48226 31.6918 5.28074 33.7975 5.50927C33.9711 4.8617 33.8779 4.17247 33.5384 3.59276C33.1988 3.01306 32.6405 2.59024 31.9861 2.41706C31.6742 2.33053 31.349 2.30061 31.0264 2.32876L29.6111 2.4711C29.2742 2.50446 28.9473 2.60326 28.6491 2.76183C28.3509 2.9204 28.0873 3.13561 27.8734 3.39514C27.6594 3.65467 27.4994 3.95341 27.4025 4.27422C27.3056 4.59503 27.2737 4.9316 27.3086 5.26463Z" fill="#FFE76C"/>
<path d="M16.8601 18.2679C16.8093 18.5774 16.7709 18.8942 16.7387 19.2147C16.7081 19.5757 16.758 19.9389 16.8846 20.2789C17.0113 20.6188 17.2118 20.9272 17.4719 21.1822C17.7321 21.4373 18.0455 21.633 18.3904 21.7554C18.7352 21.8778 19.1029 21.924 19.4677 21.8907L30.1998 20.8712L33.9851 20.5148L36.1253 20.3072L44.7025 19.5198C45.0693 19.4857 45.4239 19.3718 45.7411 19.1864C46.0582 19.001 46.33 18.7486 46.5369 18.4472C46.7439 18.1458 46.881 17.8029 46.9384 17.4431C46.9958 17.0832 46.972 16.7152 46.8689 16.3655C46.7765 16.0716 46.6902 15.7814 46.5595 15.4817L30.4797 16.9803L16.8601 18.2679Z" fill="#FFE76C"/>
<path d="M76.9185 69.7793C75.0893 76.1543 71.526 81.9106 66.6168 86.4211C61.7076 90.9316 55.6408 94.0234 49.0773 95.3595C42.5139 96.6956 35.7055 96.2249 29.3938 93.9987C23.0822 91.7724 17.5095 87.8759 13.2828 82.7337C12.7976 82.1445 12.3344 81.5185 11.8376 80.8646C6.56644 73.5337 4.24164 64.5257 5.31556 55.5933C6.38949 46.661 10.7853 38.4431 17.6478 32.5388C24.5103 26.6344 33.3486 23.4657 42.443 23.6493C51.5374 23.833 60.2376 27.3557 66.8506 33.5322L66.9499 33.5901C67.8829 34.466 68.7658 35.3927 69.5944 36.3658C73.5072 40.9059 76.2236 46.3327 77.5015 52.1626C78.7794 57.9925 78.5791 64.0445 76.9185 69.7793Z" fill="#FFE76C"/>
<path d="M71.3727 68.2223C69.4653 74.8606 65.3391 80.6637 59.6675 84.6847C53.9959 88.7057 47.1137 90.7073 40.1438 90.3629C33.1739 90.0185 26.5278 87.3483 21.2898 82.7882C16.0519 78.228 12.5313 72.0471 11.3026 65.2538C10.0739 58.4606 11.2096 51.456 14.5244 45.3831C17.8391 39.3102 23.1372 34.5275 29.5543 31.8153C35.9713 29.103 43.1285 28.6215 49.8579 30.4491C56.5873 32.2767 62.4918 36.3056 66.6079 41.8785C69.3746 45.6227 71.2418 49.9413 72.0674 54.5061C72.8931 59.071 72.6555 63.7619 71.3727 68.2223Z" fill="white"/>
<g opacity="0.18">
<path opacity="0.18" d="M84.9319 37.4176C84.8072 37.7104 84.6764 37.9995 84.5294 38.2875C84.3617 38.6107 84.1245 38.8937 83.8345 39.1165C83.5445 39.3392 83.2088 39.4962 82.8513 39.5764C82.4939 39.6565 82.1234 39.6578 81.7661 39.5802C81.4088 39.5026 81.0735 39.348 80.784 39.1273L74.7642 34.6054C74.7084 34.5728 74.5718 34.4517 74.5038 34.4535L74.541 34.4752L74.3425 34.3596L74.3859 34.3849L73.7578 33.9107L73.8012 33.9361L67.4573 29.1588C69.631 29.4966 71.8429 29.5338 74.0298 29.2692L84.9319 37.4176Z" fill="#0A1640"/>
<path opacity="0.18" d="M16.8697 18.2865C16.8244 18.6002 16.779 18.9139 16.7559 19.2323C16.723 19.5934 16.7706 19.957 16.8953 20.2972C17.02 20.6374 17.2187 20.946 17.4774 21.2012C17.7362 21.4564 18.0486 21.652 18.3927 21.7741C18.7368 21.8963 19.1041 21.942 19.4687 21.9081L27.0089 21.1744C27.0523 21.1997 27.2498 21.1488 27.314 21.1531L27.2769 21.1314C27.3543 21.1287 27.4314 21.121 27.5079 21.1084L27.4895 21.1392L28.2739 21.0569L28.2183 21.066C28.3517 21.0525 32.7296 20.6333 36.2007 20.2914C34.1733 19.4584 32.2732 18.3513 30.5545 17.0015L16.8697 18.2865Z" fill="#0A1640"/>
<path opacity="0.18" d="M71.3471 68.1752C69.8786 73.2516 67.1077 77.8705 63.3049 81.5809C59.5021 85.2914 54.7973 87.9668 49.6497 89.3458C44.5021 90.7248 39.0877 90.7604 33.9349 89.4491C28.7822 88.1378 24.0671 85.5244 20.2501 81.864C24.9519 83.0241 29.7648 83.6985 34.6116 83.8764C49.3043 84.2588 59.0213 77.6321 64.3528 66.2213C67.8904 58.6374 69.1675 49.3056 66.6239 41.8576C69.3866 45.5882 71.2484 49.8989 72.067 54.4602C72.8857 59.0215 72.6394 63.7127 71.3471 68.1752Z" fill="#0A1640"/>
</g>
<path d="M39.2434 59.2679C39.3619 58.7918 39.6204 58.3611 39.9862 58.0303C40.3521 57.6994 40.8089 57.4832 41.299 57.409C41.7891 57.3348 42.2904 57.4059 42.7396 57.6134C43.1889 57.8209 43.5658 58.1553 43.8229 58.5746C44.0799 58.9938 44.2055 59.479 44.1839 59.9688C44.1622 60.4586 43.9942 60.9311 43.701 61.3265C43.4079 61.7219 43.0028 62.0225 42.537 62.1903C42.0712 62.3582 41.5655 62.3857 41.0838 62.2694C40.439 62.1099 39.8839 61.7051 39.5393 61.143C39.1946 60.5809 39.0883 59.9071 39.2434 59.2679Z" fill="#0A1640"/>
<path d="M58.0684 104.908L56.1443 93.8573C61.4701 91.6449 66.2038 88.2401 69.9727 83.911C73.7417 79.582 76.4429 74.4468 77.8638 68.9099C79.2848 63.373 79.3865 57.5855 78.1611 52.0031C76.9357 46.4207 74.4166 41.1958 70.8022 36.7398L72.9 34.0089L80.4082 39.6552C80.5141 39.7252 80.6239 39.7893 80.7371 39.8471C81.1112 40.0639 81.526 40.2031 81.9563 40.2561C82.3866 40.3092 82.8233 40.275 83.2398 40.1556C83.6562 40.0363 84.0437 39.8343 84.3787 39.5619C84.7136 39.2896 84.9889 38.9527 85.1878 38.5717C85.3599 38.2832 85.4787 37.9719 85.6074 37.6581C86.4362 35.6799 86.855 33.5574 86.839 31.4162C86.823 29.275 86.3724 27.1588 85.5141 25.193C85.035 24.1147 84.435 23.0929 83.7253 22.147C83.8517 22.0221 83.97 21.8894 84.0795 21.7497C84.3942 21.3416 84.6244 20.8762 84.7571 20.3801C84.8898 19.8839 84.9222 19.3668 84.8527 18.8583C84.7831 18.3497 84.6128 17.8597 84.3516 17.4162C84.0904 16.9728 83.7434 16.5846 83.3304 16.2739L82.177 15.4024C82.0404 15.3227 81.9101 15.2467 81.7736 15.167C81.4822 14.9976 81.1701 14.8656 80.8449 14.7742C80.0821 14.5566 79.2706 14.5724 78.517 14.8193C77.7633 15.0663 77.1029 15.533 76.6224 16.158C76.5157 16.302 76.4237 16.4562 76.3478 16.6183C73.7504 15.6617 70.9486 15.3789 68.2094 15.7969C65.4701 16.2148 62.8848 17.3196 60.6998 19.0059C60.4737 19.1884 60.2539 19.3746 60.0341 19.5607L59.9865 19.6405C59.6365 19.9498 59.3602 20.3319 59.1774 20.7594C58.9945 21.1869 58.9097 21.6491 58.929 22.1129C58.9483 22.5766 59.0712 23.0304 59.289 23.4416C59.5067 23.8527 59.8139 24.2111 60.1884 24.4909L67.6965 30.1373L66.2179 32.0546C62.0814 28.4886 57.1997 25.8697 51.9214 24.3849C46.6432 22.9001 41.0985 22.586 35.6833 23.4651L35.4453 21.0593L44.836 20.1424C45.3095 20.101 45.7675 19.9549 46.1762 19.7148C46.5849 19.4748 46.9338 19.1469 47.197 18.7555C47.4602 18.3641 47.6311 17.9192 47.697 17.4536C47.7629 16.9881 47.7221 16.5139 47.5776 16.0661C47.4914 15.7758 47.4015 15.4917 47.2919 15.2127C46.3363 12.643 44.7306 10.3585 42.6281 8.57705C40.5256 6.79564 37.9965 5.57685 35.2822 5.037C35.2945 4.86106 35.2907 4.68438 35.2708 4.50911C35.2105 3.89509 35.0044 3.30384 34.6694 2.78344C34.3343 2.26305 33.8798 1.82821 33.3427 1.51431C33.0514 1.34572 32.7409 1.21179 32.4178 1.11533C31.9446 0.987035 31.4521 0.943449 30.9635 0.986638L29.5358 1.12174C28.4931 1.22194 27.5331 1.72705 26.8665 2.52626C26.1999 3.32548 25.8811 4.35353 25.9799 5.3849C25.999 5.56267 26.0309 5.73888 26.0753 5.91216C24.9818 6.34622 23.9423 6.90289 22.9771 7.57127C21.1902 8.79579 19.6716 10.3642 18.5119 12.1826C17.3523 14.001 16.5755 16.0321 16.228 18.1542C16.1786 18.4895 16.1366 18.8124 16.1032 19.1487C16.063 19.6071 16.1264 20.0686 16.2888 20.4997C16.4513 20.9308 16.7088 21.3207 17.0426 21.6412C17.2284 21.8246 17.4363 21.9848 17.6616 22.1182C18.2413 22.4582 18.916 22.6053 19.5866 22.5379L28.9589 21.6518L29.2332 25.1047C23.7869 27.0059 18.8616 30.1321 14.8455 34.2369C10.8295 38.3417 7.83253 43.3128 6.09084 48.7584C4.34915 54.204 3.91037 59.9753 4.80908 65.6172C5.7078 71.2591 7.91944 76.6175 11.2697 81.2699L3.76505 89.6415C3.02629 90.4484 2.62653 91.5035 2.64731 92.5918C2.66807 93.6801 3.1078 94.7196 3.87683 95.4984C4.14561 95.7776 4.45278 96.0181 4.7893 96.2128C5.55947 96.6626 6.45178 96.8652 7.34326 96.7926C8.23473 96.72 9.08149 96.3757 9.76683 95.8073L18.3662 88.7281C22.2457 91.774 26.6974 94.029 31.4638 95.3628C36.2303 96.6965 41.2168 97.0824 46.135 96.4982L49.6715 106.993C50.0008 107.975 50.6793 108.806 51.5811 109.331C52.2935 109.754 53.1141 109.966 53.9447 109.94C54.7754 109.913 55.5809 109.651 56.2647 109.184C56.9485 108.717 57.4817 108.065 57.8005 107.306C58.1193 106.547 58.2102 105.714 58.0622 104.905L58.0684 104.908ZM77.7361 16.998C78.0531 16.5983 78.4833 16.301 78.9719 16.144C79.4604 15.987 79.9852 15.9773 80.4793 16.1163C80.6905 16.1804 80.8935 16.2683 81.0843 16.3783C81.1747 16.4229 81.2618 16.4737 81.345 16.5304L82.5021 17.3958C82.7736 17.5993 83.0017 17.8539 83.1732 18.145C83.3447 18.4362 83.4561 18.758 83.5011 19.092C83.5462 19.4259 83.5238 19.7654 83.4354 20.0908C83.3471 20.4162 83.1944 20.721 82.9862 20.9878C82.9533 21.043 82.9203 21.0982 82.8874 21.1535C82.1625 20.328 81.3535 19.5787 80.473 18.9175C79.6003 18.2539 78.6594 17.6828 77.666 17.2136C77.6797 17.139 77.7033 17.0665 77.7361 16.998ZM61.0071 23.4131C60.7932 23.2514 60.6181 23.0448 60.4946 22.8082C60.371 22.5716 60.302 22.3108 60.2924 22.0447C60.2803 21.7837 60.3269 21.5234 60.4287 21.2824C60.5306 21.0413 60.6852 20.8256 60.8814 20.6508L60.9253 20.5771C61.128 20.4058 61.3306 20.2344 61.5211 20.0974C63.5338 18.5422 65.9185 17.5274 68.4442 17.1514C70.97 16.7754 73.5511 17.0508 75.9376 17.951C76.2933 18.084 76.6132 18.221 76.9914 18.4003C77.9047 18.8255 78.7692 19.3465 79.57 19.9544C80.3746 20.5603 81.1155 21.2448 81.7814 21.9975C82.039 22.2857 82.2797 22.5833 82.5036 22.8905C84.019 24.9158 84.9784 27.2945 85.2884 29.7952C85.5983 32.2959 85.2484 34.8334 84.2726 37.1607C84.1561 37.4402 84.0307 37.7063 83.8956 37.9749C83.7774 38.2125 83.6067 38.4208 83.3961 38.5844C83.1856 38.7479 82.9405 38.8626 82.6791 38.92C82.4232 38.9766 82.1578 38.978 81.9013 38.924C81.6447 38.87 81.4029 38.7618 81.1925 38.607L73.5464 32.8553L68.6433 29.1673L61.0071 23.4131ZM68.7641 30.9422L71.7893 33.2201L69.8799 35.7053C69.1052 34.8052 68.2823 33.9467 67.4149 33.1336L67.2908 33.0612L67.1914 33.0032L68.7641 30.9422ZM27.2965 5.26772C27.2313 4.59436 27.4392 3.92294 27.8744 3.40111C28.3097 2.87929 28.9368 2.54978 29.6177 2.48505L31.0391 2.34633C31.7193 2.28566 32.3961 2.49263 32.9229 2.92235C33.4497 3.35206 33.784 3.96986 33.8531 4.6417C33.8621 4.70645 33.865 4.77188 33.8619 4.83717C31.6648 4.60229 29.4422 4.81486 27.3313 5.46179L27.2965 5.26772ZM28.96 20.3037L19.4097 21.1936C19.1463 21.2199 18.8803 21.1886 18.6306 21.102C18.3808 21.0155 18.1532 20.8758 17.964 20.6928C17.7747 20.5098 17.6284 20.288 17.5353 20.0429C17.4423 19.7979 17.4047 19.5357 17.4253 19.2747C17.4502 18.9666 17.4937 18.6693 17.5372 18.372C17.9416 15.8801 18.9933 13.5347 20.5892 11.5652C22.1851 9.59573 24.2707 8.06966 26.6419 7.13627C27.0005 6.99799 27.3678 6.87309 27.7129 6.74346C28.6772 6.4478 29.6696 6.25053 30.6746 6.15473C31.6847 6.06919 32.701 6.0855 33.7078 6.20343C34.0925 6.24584 34.4822 6.30776 34.8424 6.37723C37.3462 6.85443 39.6834 7.96167 41.6285 9.59215C43.5736 11.2226 45.061 13.3213 45.9471 15.6857C46.0454 15.9416 46.124 16.2026 46.2215 16.516C46.2991 16.77 46.3177 17.0381 46.2758 17.3002C46.2339 17.5623 46.1326 17.8116 45.9794 18.0295C45.8317 18.2482 45.6379 18.4328 45.4114 18.5705C45.1848 18.7082 44.9308 18.7958 44.6667 18.8274L35.1054 19.7357L28.96 20.3037ZM30.2682 21.5469L34.0473 21.1868L34.2997 23.7087C33.0406 23.9621 31.7956 24.2796 30.5695 24.6599L30.2682 21.5469ZM8.89979 94.7222C8.43017 95.1084 7.85156 95.3419 7.24284 95.391C6.63411 95.44 6.0249 95.3023 5.49824 94.9964C5.26806 94.861 5.05698 94.6961 4.87047 94.5061C4.34058 93.9774 4.03353 93.2694 4.01144 92.5254C3.98935 91.7814 4.25389 91.0568 4.75151 90.4983L12.0688 82.3567L12.7137 83.1549C13.9815 84.7065 15.3789 86.15 16.8911 87.4703L17.2655 87.7963L8.89979 94.7222ZM45.7001 95.1937C36.3082 96.2166 26.8845 93.5636 19.4456 87.8024C19.0814 87.5154 18.7208 87.2223 18.37 86.9266L17.8153 86.454C16.3674 85.1796 15.0281 83.7894 13.8109 82.2975C13.5577 81.9926 13.3331 81.696 13.0423 81.3279L12.3957 80.4624L12.2258 80.2144C9.05286 75.7287 6.97124 70.5785 6.14338 65.1659C5.31551 59.7533 5.76381 54.2247 7.45327 49.0118C9.14273 43.7988 12.0276 39.0425 15.8828 35.114C19.738 31.1856 24.4591 28.1914 29.6776 26.3652C31.6332 25.6705 33.6471 25.1482 35.6958 24.8045C40.9694 23.9259 46.3752 24.2296 51.5141 25.6934C54.474 26.5295 57.3138 27.7359 59.9647 29.2833C61.9087 30.4155 63.7397 31.7275 65.4331 33.2019C65.759 33.483 66.0688 33.7631 66.3811 34.0529C66.4022 34.0689 66.4251 34.0822 66.4494 34.0927C67.3529 34.9509 68.2091 35.8564 69.0144 36.8054C69.2454 37.0726 69.4749 37.3471 69.7027 37.629C73.1646 41.9011 75.5816 46.9064 76.7651 52.2545C77.9486 57.6025 77.8666 63.1486 76.5256 68.4601C75.1846 73.7717 72.6207 78.705 69.0341 82.8753C65.4474 87.0456 60.935 90.34 55.8487 92.5017C55.4225 92.6832 55.0046 92.8366 54.5587 93.0232C54.1127 93.2098 53.7822 93.3148 53.3853 93.4473C51.5478 94.0763 49.6623 94.5589 47.7469 94.8903L47.0445 95.0018C46.6188 95.0843 46.1657 95.1426 45.7001 95.1937ZM54.5099 108.475C53.7837 108.661 53.013 108.566 52.355 108.21C51.6969 107.854 51.201 107.263 50.9683 106.558L47.5237 96.2742L48.0236 96.1935C50.0103 95.8543 51.9655 95.354 53.8692 94.6977C54.1934 94.589 54.5151 94.4705 54.8306 94.3484L56.724 105.1C56.863 105.836 56.7124 106.595 56.303 107.224C55.8936 107.853 55.2565 108.303 54.5223 108.482L54.5099 108.475Z" fill="#0A1640"/>
<path d="M47.2515 38.306C47.2086 38.45 47.216 38.6042 47.2724 38.7436C47.3288 38.8831 47.431 38.9997 47.5625 39.0749L47.7114 39.1618C47.8859 39.2021 48.0693 39.1768 48.2258 39.0907C48.3824 39.0046 48.5009 38.8639 48.5582 38.696L49.6928 34.7329C49.7271 34.6451 49.7425 34.5511 49.7381 34.4571C49.7336 34.363 49.7093 34.2709 49.6668 34.1866C49.6243 34.1024 49.5645 34.0278 49.4912 33.9677C49.4179 33.9076 49.3327 33.8633 49.2411 33.8376C49.1495 33.8119 49.0535 33.8053 48.9592 33.8184C48.8649 33.8315 48.7744 33.8639 48.6935 33.9135C48.6126 33.9631 48.543 34.0289 48.4892 34.1066C48.4355 34.1843 48.3987 34.2723 48.3812 34.3649L47.2515 38.306Z" fill="#0A1640"/>
<path d="M61.3287 41.0751C61.1975 40.9536 61.0251 40.8849 60.8454 40.8826C60.6656 40.8803 60.4915 40.9445 60.3572 41.0626L57.3618 43.9236C57.2389 44.0533 57.1695 44.2238 57.1672 44.4015C57.1649 44.5792 57.2298 44.7514 57.3492 44.8843C57.3953 44.923 57.4478 44.9537 57.5044 44.9748C57.6332 45.0501 57.7837 45.0812 57.9322 45.0631C58.0808 45.045 58.2191 44.9787 58.3255 44.8747L61.3245 42.0076C61.4384 41.8786 61.5015 41.7133 61.5023 41.5421C61.503 41.3709 61.4414 41.2051 61.3287 41.0751Z" fill="#0A1640"/>
<path d="M67.3151 52.7984L63.2528 53.7874C63.1304 53.8316 63.0224 53.9077 62.9402 54.0077C62.8581 54.1077 62.8049 54.2279 62.7863 54.3554C62.7677 54.4829 62.7845 54.6131 62.8347 54.7319C62.885 54.8508 62.9669 54.954 63.0718 55.0305C63.2295 55.1174 63.4145 55.1427 63.5902 55.1012L67.6339 54.1013C67.7473 54.1086 67.861 54.0893 67.9654 54.0449C68.0699 54.0005 68.1623 53.9323 68.235 53.8459C68.3077 53.7594 68.3587 53.6572 68.3838 53.5475C68.4089 53.4378 68.4074 53.3238 68.3795 53.2148C68.3515 53.1058 68.2978 53.0049 68.2228 52.9204C68.1478 52.8358 68.0537 52.77 67.9481 52.7283C67.8425 52.6867 67.7284 52.6703 67.6151 52.6806C67.5019 52.6909 67.3927 52.7275 67.2965 52.7875L67.3151 52.7984Z" fill="#0A1640"/>
<path d="M62.8493 66.5029L62.9982 66.5898L67.0048 67.7277C67.1792 67.768 67.3626 67.7427 67.5191 67.6566C67.6757 67.5705 67.7942 67.4298 67.8516 67.2619C67.9074 67.0943 67.8941 66.9115 67.8145 66.7535C67.7348 66.5955 67.5953 66.475 67.4263 66.4181L63.4197 65.2803C63.2711 65.2707 63.1231 65.3069 62.9961 65.3839C62.8691 65.4609 62.7694 65.575 62.7106 65.7103C62.6519 65.8457 62.637 65.9958 62.6681 66.1398C62.6991 66.2839 62.7745 66.415 62.884 66.5149L62.8493 66.5029Z" fill="#0A1640"/>
<path d="M59.7374 79.3066C59.8648 79.3831 60.0143 79.4153 60.1624 79.3983C60.3104 79.3813 60.4485 79.316 60.5548 79.2126C60.6205 79.1515 60.6731 79.078 60.7096 78.9965C60.7462 78.915 60.7659 78.8271 60.7677 78.738C60.7694 78.6489 60.7531 78.5603 60.7198 78.4774C60.6865 78.3946 60.6368 78.3192 60.5736 78.2556L57.6842 75.2873C57.5576 75.1614 57.3859 75.0897 57.2064 75.0878C57.0268 75.0858 56.8536 75.1537 56.7242 75.2768C56.5948 75.3999 56.5194 75.5684 56.5145 75.7459C56.5095 75.9235 56.5752 76.0958 56.6976 76.2258L59.5932 79.1977C59.6368 79.2395 59.6851 79.276 59.7374 79.3066Z" fill="#0A1640"/>
<path d="M47.6919 81.0826C47.7002 80.9704 47.6815 80.8579 47.6374 80.7543C47.5933 80.6507 47.525 80.5588 47.4381 80.4863C47.3512 80.4137 47.2482 80.3626 47.1375 80.3369C47.0268 80.3113 46.9115 80.312 46.8011 80.3388C46.6907 80.3657 46.5882 80.418 46.5022 80.4915C46.4161 80.565 46.3489 80.6576 46.306 80.7617C46.263 80.8658 46.2456 80.9785 46.2552 81.0906C46.2647 81.2026 46.3009 81.3108 46.3608 81.4064L47.3311 85.3896C47.3532 85.4769 47.3929 85.559 47.4478 85.6308C47.5027 85.7026 47.5717 85.7628 47.6506 85.8077C47.7264 85.8524 47.8102 85.8818 47.8975 85.8944C47.9848 85.907 48.0737 85.9024 48.1591 85.8809C48.3313 85.8289 48.4775 85.7149 48.569 85.5616C48.6605 85.4082 48.6906 85.2266 48.6535 85.0524L47.6919 81.0826Z" fill="#0A1640"/>
<path d="M36.0922 81.1736C36.1366 81.0033 36.1121 80.8225 36.024 80.6697C35.9359 80.5169 35.7912 80.404 35.6204 80.3549C35.4496 80.3058 35.2661 80.3243 35.1089 80.4066C34.9517 80.4889 34.8331 80.6285 34.7782 80.7958L33.6213 84.7542C33.5842 84.8978 33.5932 85.0493 33.6472 85.1875C33.7012 85.3258 33.7974 85.444 33.9225 85.5256C33.9684 85.5604 34.0184 85.5896 34.0714 85.6125C34.2463 85.6548 34.4308 85.6308 34.5886 85.5452C34.7465 85.4597 34.8663 85.3189 34.9244 85.1504L36.0922 81.1736Z" fill="#0A1640"/>
<path d="M26.0288 74.5342C25.8986 74.4128 25.7274 74.3437 25.5485 74.3402C25.3696 74.3368 25.1958 74.3993 25.0609 74.5156L22.0532 77.3693C21.9305 77.498 21.8605 77.6673 21.8571 77.8442C21.8536 78.0211 21.9168 78.193 22.0344 78.3263C22.0845 78.3635 22.1386 78.3951 22.1957 78.4205C22.3264 78.4892 22.4754 78.5165 22.6223 78.4986C22.7692 78.4807 22.907 78.4184 23.0169 78.3204L26.0176 75.5205C26.1478 75.3893 26.2216 75.2134 26.2237 75.0295C26.2257 74.8457 26.1559 74.6682 26.0288 74.5342Z" fill="#0A1640"/>
<path d="M19.8179 64.29L15.7837 65.2459C15.6116 65.298 15.4653 65.4119 15.3739 65.5653C15.2824 65.7186 15.2522 65.9003 15.2894 66.0745C15.3427 66.2428 15.4573 66.3856 15.6109 66.4752C15.7645 66.5648 15.9463 66.5949 16.1211 66.5597L20.1552 65.6038C20.2839 65.5235 20.3836 65.405 20.44 65.2652C20.4964 65.1254 20.5066 64.9716 20.4692 64.8257C20.4317 64.6799 20.3485 64.5495 20.2315 64.4533C20.1145 64.357 19.9697 64.2999 19.8179 64.29Z" fill="#0A1640"/>
<path d="M20.4473 52.8426L16.448 51.6925C16.2931 51.659 16.1312 51.6798 15.99 51.7513C15.8488 51.8228 15.7371 51.9405 15.674 52.0844C15.6108 52.2283 15.6002 52.3894 15.6438 52.5402C15.6875 52.691 15.7828 52.8221 15.9134 52.9112L16.0623 52.9981L20.0579 54.1543C20.2114 54.1515 20.36 54.1002 20.4819 54.008C20.6039 53.9157 20.6929 53.7874 20.7359 53.6417C20.779 53.496 20.7738 53.3404 20.7213 53.1978C20.6687 53.0552 20.5714 52.9329 20.4436 52.8487L20.4473 52.8426Z" fill="#0A1640"/>
<path d="M26.8007 43.2451L23.9186 40.2646C23.7919 40.1387 23.6203 40.067 23.4408 40.0651C23.2612 40.0631 23.088 40.131 22.9586 40.2541C22.8291 40.3772 22.7538 40.5457 22.7488 40.7232C22.7439 40.9007 22.8096 41.0731 22.9319 41.2031L25.8078 44.18C25.8582 44.2168 25.9123 44.2483 25.9692 44.2741C26.1002 44.3447 26.2502 44.3734 26.3984 44.3561C26.5466 44.3388 26.6857 44.2765 26.7965 44.1777C26.9104 44.0486 26.9735 43.8834 26.9743 43.7121C26.975 43.5409 26.9134 43.3751 26.8007 43.2451Z" fill="#0A1640"/>
<path d="M35.8316 38.403C35.8533 38.4893 35.8922 38.5704 35.946 38.6416C35.9997 38.7128 36.0672 38.7728 36.1447 38.8179C36.2221 38.8631 36.3078 38.8926 36.3968 38.9046C36.4858 38.9167 36.5764 38.9111 36.6633 38.8883C36.8354 38.8362 36.9817 38.7223 37.0732 38.5689C37.1646 38.4156 37.1948 38.2339 37.1576 38.0597L36.191 34.0704C36.1384 33.9072 36.0253 33.7697 35.8744 33.6857C35.7234 33.6017 35.5459 33.5774 35.3776 33.6177C35.2093 33.658 35.0626 33.7599 34.9672 33.9028C34.8718 34.0458 34.8348 34.2192 34.8635 34.3881L35.8316 38.403Z" fill="#0A1640"/>
<path d="M36.995 77.9773L42.3408 60.0559C42.3841 59.8852 42.3619 59.7046 42.2786 59.5491C42.1953 59.3936 42.0567 59.274 41.8896 59.2135L27.206 54.7256C27.039 54.6912 26.865 54.7196 26.7181 54.8054C26.5712 54.8912 26.4619 55.0281 26.4118 55.1894C26.3616 55.3506 26.3742 55.5246 26.447 55.6772C26.5198 55.8298 26.6476 55.95 26.8053 56.0143L40.8337 60.3101L35.666 77.5825C35.6213 77.7271 35.6273 77.8823 35.6831 78.023C35.7389 78.1637 35.8412 78.2816 35.9733 78.3576L36.116 78.4408C36.2947 78.4904 36.4858 78.4698 36.6495 78.3834C36.8133 78.2971 36.937 78.1516 36.995 77.9773Z" fill="#0A1640"/>
</g>
<defs>
<clipPath id="clip0_109:4705">
<rect width="90" height="110" fill="white"/>
</clipPath>
</defs>
</svg>
