<svg width="220" height="120" viewBox="0 0 220 120" fill="none" xmlns="http://www.w3.org/2000/svg">
<g clip-path="url(#clip0_257:2473)">
<path d="M33.9019 35.6286C33.8895 35.5217 33.876 35.4058 33.8617 35.2813C33.7716 34.5021 33.6439 33.388 33.4939 32.0483C33.1937 29.3688 32.8039 25.7879 32.445 22.1813C32.086 18.5734 31.7585 14.9449 31.5825 12.1681C31.4944 10.7782 31.4448 9.61077 31.4474 8.76895C31.4486 8.3462 31.4631 8.01928 31.4895 7.79246C31.4931 7.76163 31.4968 7.73378 31.5005 7.70875C31.5362 7.7087 31.5768 7.70936 31.6228 7.7109C31.8795 7.71948 32.2455 7.75328 32.7133 7.81173C33.6456 7.92822 34.9373 8.13677 36.4722 8.41022C39.5395 8.9567 43.5496 9.75723 47.5362 10.5825C51.5218 11.4075 55.48 12.2563 58.442 12.899C59.9229 13.2204 61.1547 13.4901 62.0162 13.6795C62.1244 13.7033 62.2268 13.7258 62.3232 13.747L33.9019 35.6286ZM31.5384 7.53754C31.5386 7.53781 31.5373 7.54137 31.5344 7.54742C31.5369 7.5403 31.5383 7.53727 31.5384 7.53754Z" stroke="black"/>
<path d="M38.1817 14.1925C38.1822 14.0284 38.1861 13.8923 38.1929 13.7838C38.3223 13.7928 38.4877 13.8096 38.6887 13.8348C39.2292 13.9023 39.9819 14.0238 40.8805 14.184C42.6755 14.504 45.0245 14.9731 47.3619 15.4571C49.6982 15.9409 52.0189 16.4388 53.7558 16.8157C54.4885 16.9747 55.1171 17.1122 55.5991 17.218L39.579 29.5605C39.5278 29.1163 39.4599 28.5226 39.3817 27.8243C39.2056 26.2531 38.9769 24.1536 38.7663 22.0392C38.5557 19.9235 38.3638 17.798 38.2606 16.1728C38.209 15.3588 38.1802 14.6794 38.1817 14.1925ZM38.2217 13.5416C38.225 13.5303 38.2254 13.5332 38.2208 13.5453C38.2211 13.5438 38.2215 13.5425 38.2217 13.5416Z" fill="white" stroke="black"/>
<path d="M186.585 37.4117L161.588 11.6444C161.686 11.6373 161.79 11.6299 161.9 11.622C162.779 11.5593 164.037 11.4705 165.548 11.3669C168.571 11.1595 172.609 10.8922 176.671 10.6525C180.734 10.4128 184.816 10.2009 187.93 10.1041C189.488 10.0556 190.796 10.0362 191.735 10.056C192.206 10.0659 192.574 10.0854 192.829 10.1141C192.875 10.1193 192.916 10.1246 192.951 10.1298C192.951 10.1555 192.951 10.184 192.95 10.2155C192.944 10.4439 192.911 10.7696 192.852 11.1882C192.735 12.0218 192.519 13.17 192.233 14.5327C191.662 17.2553 190.819 20.7987 189.948 24.317C189.077 27.834 188.18 31.3211 187.5 33.9292C187.16 35.2331 186.874 36.3172 186.674 37.0752C186.642 37.1957 186.612 37.308 186.585 37.4117ZM192.938 9.95583C192.938 9.95558 192.939 9.95875 192.941 9.96608C192.939 9.95974 192.938 9.95608 192.938 9.95583Z" stroke="black"/>
<path d="M181.845 30.5994L167.746 16.0656C168.238 16.0307 168.88 15.9857 169.627 15.9345C171.4 15.8129 173.768 15.6563 176.15 15.5158C178.533 15.3752 180.925 15.2511 182.749 15.1943C183.662 15.1659 184.425 15.1546 184.97 15.166C185.175 15.1702 185.342 15.1776 185.472 15.1875C185.463 15.296 185.448 15.4315 185.425 15.5942C185.356 16.0763 185.231 16.7445 185.063 17.5427C184.729 19.136 184.235 21.2117 183.724 23.2749C183.213 25.3369 182.687 27.3815 182.288 28.9109C182.111 29.59 181.959 30.1674 181.845 30.5994ZM185.479 14.9476C185.476 14.9349 185.477 14.9321 185.478 14.9438C185.478 14.9448 185.479 14.946 185.479 14.9476Z" fill="white" stroke="black"/>
<path d="M110.571 0.5C150.741 0.5 173.361 13.241 186.16 34.4428C198.935 55.6047 201.992 85.287 202.711 119.5H18.4803C19.2747 85.289 22.4825 55.606 35.309 34.4436C48.1605 13.2399 70.7321 0.5 110.571 0.5Z" fill="white" stroke="black"/>
<path d="M150.696 72.2523C150.696 78.8164 146.459 84.8338 139.45 89.2355C132.448 93.633 122.744 96.3694 111.999 96.3694C101.253 96.3694 91.549 93.633 84.5472 89.2355C77.5385 84.8338 73.3008 78.8164 73.3008 72.2523C73.3008 65.6883 77.5397 59.6708 84.5489 55.2691C91.5514 50.8716 101.256 48.1353 111.999 48.1353C122.742 48.1353 132.446 50.871 139.448 55.2682C146.457 59.6696 150.696 65.6871 150.696 72.2523Z" fill="white" stroke="black"/>
<path d="M137.041 90.6222C130.297 94.1975 121.564 96.3693 111.998 96.3693C102.403 96.3693 93.6376 94.1815 86.8795 90.5788C87.6434 87.4658 90.4974 84.6086 94.846 82.4927C99.3411 80.3055 105.341 78.9609 111.958 78.9609C118.575 78.9609 124.585 80.3102 129.086 82.5054C133.441 84.6296 136.295 87.4976 137.041 90.6222Z" fill="#E44044" stroke="black"/>
<path d="M84.4317 14.9259C92.0431 13.8775 98.5748 19.7559 101.37 26.429L102.63 25.9503C99.4572 24.6387 96.3746 22.9824 92.9565 22.4295C88.813 21.7593 84.5649 23.0087 80.7163 24.44C79.791 24.7847 80.6616 25.0479 81.2182 24.8397C84.974 23.4419 88.9343 22.3672 92.9375 23.2241C95.9274 23.8632 98.6913 25.3782 101.5 26.5343C101.705 26.6181 102.913 26.417 102.761 26.0556C99.7212 18.7914 92.7829 13.2097 84.6695 14.3275C84.0749 14.4089 83.4588 15.0599 84.4317 14.9259Z" fill="black"/>
<path d="M138.143 14.3155C129.882 13.1786 122.589 18.9756 119.497 26.3572C119.35 26.7138 120.344 26.484 120.449 26.4457C123.303 25.2729 126.088 23.7339 129.131 23.1355C133.051 22.3624 137.077 23.5783 140.729 24.9378C141.069 25.0647 142.332 24.5285 141.861 24.3538C137.934 22.8914 133.814 21.8095 129.616 22.4917C126.21 23.0446 123.103 24.7415 119.947 26.0484L120.898 26.1346C123.638 19.5908 129.811 13.9278 137.282 14.945C137.62 14.9929 138.897 14.4184 138.167 14.3155H138.143Z" fill="black"/>
<path d="M213.973 94.1504C213.973 94.1504 215.117 98.2863 214.211 100.558C212.812 104.038 215.598 107.81 218.081 105.73C222.879 101.711 213.973 94.1504 213.973 94.1504Z" fill="#75CDFE"/>
<path d="M211.227 57.3862C211.227 57.3862 213.902 60.7371 213.952 63.1833C214.033 66.9362 218.07 69.2962 219.537 66.3977C222.375 60.7969 211.227 57.3862 211.227 57.3862Z" fill="#75CDFE"/>
<path d="M147.676 30.1676C147.676 30.1676 150.984 32.7311 152.238 34.9905C153.632 37.5013 157.514 38.3414 158.66 35.3017C160.784 29.7272 147.676 30.1676 147.676 30.1676Z" fill="#75CDFE"/>
<path d="M171.316 30.6989C171.316 30.6989 175.21 32.4581 176.361 34.617C178.126 37.9248 182.784 38.1833 182.784 34.9306C182.788 28.6429 171.316 30.6989 171.316 30.6989Z" fill="#75CDFE"/>
<path d="M159.072 49.897C159.072 49.897 162.78 53.3986 163.116 56.2684C163.534 59.964 167.512 62.1397 169.795 59.8419C174.49 55.1052 159.072 49.897 159.072 49.897Z" fill="#75CDFE"/>
<path d="M70.6763 29.818C70.6763 29.818 67.3701 32.3814 66.1166 34.6409C64.7227 37.1517 60.8409 37.9918 59.6944 34.9544C57.5774 29.3776 70.6763 29.818 70.6763 29.818Z" fill="#75CDFE"/>
<path d="M27.7608 44.684C27.7608 44.684 24.4545 47.2474 23.201 49.5068C21.8072 52.0176 17.9229 52.8577 16.7788 49.8204C14.6595 44.2436 27.7608 44.684 27.7608 44.684Z" fill="#75CDFE"/>
<path d="M51.2875 30.3519C51.2875 30.3519 47.3937 32.1087 46.2425 34.27C44.4776 37.5754 39.8203 37.8339 39.8203 34.5811C39.8156 28.2958 51.2875 30.3519 51.2875 30.3519Z" fill="#75CDFE"/>
<path d="M50.4251 74.3896C50.4251 74.3896 48.458 78.1977 48.8862 80.6127C49.5427 84.3083 46.0461 87.4222 44.0386 84.8731C40.1686 79.9401 50.4251 74.3896 50.4251 74.3896Z" fill="#75CDFE"/>
<path d="M34.0354 64.0618C34.0354 64.0618 30.7744 66.831 30.2558 69.2245C29.4637 72.8914 25.0515 74.4304 24.1619 71.3045C22.4445 65.2585 34.0354 64.0618 34.0354 64.0618Z" fill="#75CDFE"/>
<path d="M30.2772 87.4031C30.2772 87.4031 28.0247 91.0508 28.2697 93.4897C28.6407 97.2236 24.9182 100.06 23.1129 97.3624C19.6211 92.1494 30.2772 87.4031 30.2772 87.4031Z" fill="#75CDFE"/>
<path d="M8.77199 65.5745C8.77199 65.5745 6.09608 68.9254 6.04613 71.3715C5.96526 75.1245 1.92879 77.4845 0.4612 74.586C-2.3717 68.9852 8.77199 65.5745 8.77199 65.5745Z" fill="#75CDFE"/>
<path d="M190.672 46.4625C190.672 46.4625 194.599 47.8986 196.478 49.653C198.566 51.6157 202.52 51.2232 202.693 47.9776C203.012 42.0178 190.672 46.4625 190.672 46.4625Z" fill="#75CDFE"/>
<path d="M173.574 74.3896C173.574 74.3896 175.541 78.1977 175.113 80.6127C174.457 84.3083 177.953 87.4222 179.958 84.8731C183.831 79.9401 173.574 74.3896 173.574 74.3896Z" fill="#75CDFE"/>
<path d="M186.377 59.5356C186.377 59.5356 189.638 62.3169 190.154 64.7104C190.949 68.3796 195.361 69.9162 196.248 66.7903C197.968 60.7348 186.377 59.5356 186.377 59.5356Z" fill="#75CDFE"/>
<path d="M186.586 94.5835C186.586 94.5835 188.838 98.2312 188.593 100.67C188.222 104.404 191.945 107.24 193.75 104.543C197.242 99.3298 186.586 94.5835 186.586 94.5835Z" fill="#75CDFE"/>
<path d="M59.2882 49.55C59.2882 49.55 55.58 53.0493 55.2565 55.9191C54.8379 59.6147 50.8609 61.7928 48.5774 59.4926C43.8702 54.7559 59.2882 49.55 59.2882 49.55Z" fill="#75CDFE"/>
<path d="M114.101 35.2419C113.338 36.3118 112.075 36.3213 111.295 35.2634L108.916 32.0442C108.136 30.9887 108.569 30.1294 109.868 30.1294H115.367C116.675 30.1294 117.12 31.0054 116.356 32.0729L114.101 35.2419Z" fill="white"/>
<path d="M113.066 33.9946H112.207V47.6519H113.066V33.9946Z" fill="white"/>
<path d="M136.667 53.6846L133.947 58.8956L131.652 51.4798C133.367 52.1106 135.042 52.8469 136.667 53.6846ZM89.0364 52.8438C90.8868 51.9941 92.7893 51.2648 94.7322 50.6602L92.1863 58.8935L89.0364 52.8438Z" fill="white" stroke="black"/>
</g>
<defs>
<clipPath id="clip0_257:2473">
<rect width="220" height="120" fill="white"/>
</clipPath>
</defs>
</svg>
