<svg width="14" height="26" viewBox="0 0 14 26" fill="none" xmlns="http://www.w3.org/2000/svg">
<path d="M13.3637 0.505202L10.1218 0.5C6.47959 0.5 4.12583 2.91487 4.12583 6.65253V9.48926H0.866209C0.584539 9.48926 0.356445 9.71762 0.356445 9.99929V14.1094C0.356445 14.3911 0.584799 14.6191 0.866209 14.6191H4.12583V24.9902C4.12583 25.2719 4.35393 25.5 4.6356 25.5H8.88848C9.17015 25.5 9.39824 25.2716 9.39824 24.9902V14.6191H13.2095C13.4912 14.6191 13.7193 14.3911 13.7193 14.1094L13.7208 9.99929C13.7208 9.86404 13.667 9.73452 13.5715 9.63881C13.4761 9.5431 13.3461 9.48926 13.2108 9.48926H9.39824V7.08453C9.39824 5.92872 9.67367 5.34197 11.1793 5.34197L13.3632 5.34119C13.6446 5.34119 13.8727 5.11284 13.8727 4.83143V1.01497C13.8727 0.733815 13.6449 0.505722 13.3637 0.505202Z" fill="#868EA5"/>
</svg>
