<svg width="26" height="26" viewBox="0 0 26 26" fill="none" xmlns="http://www.w3.org/2000/svg">
<path d="M18.2072 0.5H7.00539C3.20132 0.5 0.106445 3.59502 0.106445 7.3991V18.6009C0.106445 22.4051 3.20132 25.5 7.00539 25.5H18.2072C22.0116 25.5 25.1064 22.405 25.1064 18.6009V7.3991C25.1066 3.59502 22.0116 0.5 18.2072 0.5ZM22.8885 18.6009C22.8885 21.1821 20.7885 23.2819 18.2073 23.2819H7.00539C4.42439 23.282 2.32457 21.1821 2.32457 18.6009V7.3991C2.32457 4.81809 4.42439 2.71812 7.00539 2.71812H18.2072C20.7884 2.71812 22.8883 4.81809 22.8883 7.3991V18.6009H22.8885Z" fill="#868EA5"/>
<path d="M12.6069 6.55835C9.05481 6.55835 6.16504 9.44812 6.16504 13.0002C6.16504 16.5522 9.05481 19.4418 12.6069 19.4418C16.159 19.4418 19.0488 16.5522 19.0488 13.0002C19.0488 9.44812 16.159 6.55835 12.6069 6.55835ZM12.6069 17.2235C10.278 17.2235 8.38316 15.3289 8.38316 13.0001C8.38316 10.671 10.2779 8.77632 12.6069 8.77632C14.9359 8.77632 16.8307 10.671 16.8307 13.0001C16.8307 15.3289 14.9358 17.2235 12.6069 17.2235Z" fill="#868EA5"/>
<path d="M19.318 4.67761C18.8907 4.67761 18.4709 4.85063 18.169 5.15377C17.8658 5.45543 17.6914 5.8754 17.6914 6.30423C17.6914 6.73174 17.8659 7.15156 18.169 7.4547C18.4707 7.75636 18.8907 7.93086 19.318 7.93086C19.7469 7.93086 20.1654 7.75636 20.4685 7.4547C20.7716 7.15156 20.9447 6.73159 20.9447 6.30423C20.9447 5.8754 20.7716 5.45543 20.4685 5.15377C20.1668 4.85063 19.7469 4.67761 19.318 4.67761Z" fill="#868EA5"/>
</svg>
