<svg width="14" height="22" viewBox="0 0 14 22" fill="none" xmlns="http://www.w3.org/2000/svg">
<path d="M9.28093 16.1916L12.4566 19.2574C13.1072 19.8841 13.1072 20.9018 12.4566 21.5292C11.8067 22.1565 10.7534 22.1565 10.1042 21.5292L6.98184 18.5165L3.86223 21.5292C3.53694 21.8425 3.11071 21.9993 2.68447 21.9993C2.25892 21.9993 1.83336 21.8425 1.50807 21.5292C0.858183 20.9018 0.858183 19.8847 1.50739 19.2574L4.68343 16.1916C3.52709 15.9373 2.41187 15.495 1.38469 14.873C0.607336 14.3998 0.373824 13.4086 0.863622 12.6576C1.35206 11.9056 2.37924 11.6792 3.15795 12.1523C5.48356 13.5645 8.47944 13.5648 10.8064 12.1523C11.5851 11.6792 12.612 11.9056 13.1014 12.6576C13.5912 13.408 13.357 14.3998 12.5797 14.873C11.5525 15.4957 10.4373 15.9373 9.28093 16.1916Z" fill="#868EA5"/>
<path fill-rule="evenodd" clip-rule="evenodd" d="M1.28711 6.2339C1.28711 9.25703 3.83501 11.7162 6.96788 11.7162C10.1014 11.7162 12.6486 9.25703 12.6486 6.2339C12.6486 3.20978 10.1014 0.75 6.96788 0.75C3.83501 0.75 1.28711 3.20978 1.28711 6.2339ZM9.31987 6.23384C9.31987 4.98181 8.26482 3.9637 6.96776 3.9637C5.67171 3.9637 4.61564 4.98181 4.61564 6.23384C4.61564 7.4849 5.67171 8.50366 6.96776 8.50366C8.26482 8.50366 9.31987 7.4849 9.31987 6.23384Z" fill="#868EA5"/>
</svg>
