<svg width="26" height="15" viewBox="0 0 26 15" fill="none" xmlns="http://www.w3.org/2000/svg">
<path fill-rule="evenodd" clip-rule="evenodd" d="M22.3735 9.49576C23.2028 10.3054 24.078 11.0672 24.8218 11.9585C25.1504 12.3545 25.4614 12.7633 25.6994 13.2229C26.0366 13.8763 25.7312 14.5954 25.1453 14.6344L21.5032 14.6328C20.5639 14.7107 19.8145 14.3326 19.1844 13.6903C18.6802 13.1767 18.2132 12.63 17.7283 12.0991C17.5295 11.8821 17.3215 11.6779 17.0729 11.5165C16.5757 11.1938 16.1442 11.2926 15.8601 11.8111C15.5707 12.3385 15.5051 12.9225 15.4766 13.5103C15.4376 14.368 15.1784 14.5934 14.3169 14.6327C12.4758 14.7195 10.7286 14.441 9.1054 13.5122C7.67436 12.6935 6.56465 11.5376 5.59877 10.229C3.71819 7.68097 2.27804 4.88108 0.98368 2.00274C0.692331 1.35425 0.905401 1.00614 1.62092 0.993823C2.80907 0.970742 3.99705 0.972385 5.1866 0.992181C5.6695 0.999245 5.98918 1.27622 6.17564 1.73242C6.81847 3.31303 7.60503 4.81685 8.59235 6.21075C8.85528 6.58186 9.12338 6.95297 9.50517 7.21417C9.92753 7.50339 10.2491 7.40753 10.4478 6.93703C10.5739 6.6387 10.6291 6.31737 10.6575 5.99785C10.7516 4.89857 10.764 3.80119 10.5989 2.70578C10.4976 2.02213 10.1125 1.57956 9.43034 1.45019C9.08223 1.38423 9.13406 1.2547 9.30261 1.056C9.59536 0.713317 9.87069 0.5 10.4195 0.5H14.5356C15.1836 0.627891 15.3275 0.918994 15.4163 1.57102L15.4198 6.14315C15.4127 6.39557 15.5459 7.1446 16.0005 7.31167C16.3644 7.43061 16.6042 7.13951 16.8226 6.90878C17.8081 5.86281 18.5114 4.62669 19.1398 3.34671C19.4187 2.78389 19.6584 2.19939 19.8908 1.61537C20.063 1.18201 20.3331 0.968771 20.8213 0.978217L24.7828 0.981749C24.9003 0.981749 25.0191 0.983474 25.1329 1.00294C25.8004 1.1167 25.9834 1.40386 25.7772 2.05572C25.4523 3.07844 24.8203 3.93072 24.2022 4.78695C23.5416 5.70108 22.835 6.58392 22.1799 7.50347C21.578 8.34318 21.6258 8.76645 22.3735 9.49576Z" fill="#868EA5"/>
</svg>
