<svg width="25" height="18" viewBox="0 0 25 18" fill="none" xmlns="http://www.w3.org/2000/svg">
<path d="M23.6101 2.91558C23.337 1.86631 22.5322 1.04005 21.5103 0.759631C19.6583 0.25 12.2314 0.25 12.2314 0.25C12.2314 0.25 4.80458 0.25 2.95248 0.759631C1.93056 1.04005 1.12576 1.86631 0.852631 2.91558C0.356445 4.81727 0.356445 8.78516 0.356445 8.78516C0.356445 8.78516 0.356445 12.7529 0.852631 14.6547C1.12576 15.704 1.93056 16.5303 2.95248 16.8108C4.80458 17.3203 12.2314 17.3203 12.2314 17.3203C12.2314 17.3203 19.6583 17.3203 21.5103 16.8108C22.5322 16.5303 23.337 15.704 23.6101 14.6547C24.1064 12.7529 24.1064 8.78516 24.1064 8.78516C24.1064 8.78516 24.1064 4.81727 23.6101 2.91558Z" fill="#868EA5"/>
<path d="M10.0049 12.8672V5.44531L15.9424 9.15639L10.0049 12.8672Z" fill="#252937"/>
</svg>
